<svg xmlns="http://www.w3.org/2000/svg" width="40" height="41" fill="none"><mask id="a" width="40" height="41" x="0" y="0" maskUnits="userSpaceOnUse" style="mask-type:alpha"><path fill="#d9d9d9" d="M0 .25h40v40H0z"/></mask><g mask="url(#a)"><path fill="#fff" d="M20.007 24.01q1.571 0 2.662-1.097 1.092-1.098 1.092-2.67t-1.098-2.662q-1.098-1.092-2.67-1.091-1.571 0-2.662 1.097-1.092 1.098-1.091 2.67 0 1.571 1.097 2.662 1.098 1.092 2.67 1.091m.003 12.073q-3.288 0-6.166-1.246a16.1 16.1 0 0 1-5.031-3.398 16.1 16.1 0 0 1-3.4-5.03q-1.245-2.88-1.246-6.17 0-3.28 1.246-6.166Q6.66 11.187 8.811 9.05a16.2 16.2 0 0 1 5.03-3.385q2.88-1.248 6.17-1.247 3.28 0 6.166 1.246T31.2 9.047t3.385 5.026 1.247 6.167q0 3.288-1.246 6.166a16.1 16.1 0 0 1-3.384 5.026q-2.137 2.146-5.026 3.399-2.89 1.252-6.167 1.252m.004-2.094q5.727 0 9.727-4.007 3.998-4.008 3.998-9.746 0-5.727-3.993-9.727Q25.752 6.511 20 6.511q-5.724 0-9.732 3.994-4.007 3.993-4.007 9.745 0 5.724 4.007 9.732 4.008 4.007 9.746 4.007"/></g></svg>