<svg width="40" height="40" viewBox="0 0 40 40" fill="none" xmlns="http://www.w3.org/2000/svg">
<mask id="mask0_1744_197" style="mask-type:alpha" maskUnits="userSpaceOnUse" x="0" y="0" width="40" height="40">
<rect width="40" height="40" fill="#D9D9D9"/>
</mask>
<g mask="url(#mask0_1744_197)">
<path d="M29.0599 37.9167V31.1434H11.4637C10.7473 31.1434 10.1337 30.888 9.62284 30.3771C9.112 29.8663 8.85659 29.2527 8.85659 28.5363V10.94H2.08325V8.84629H8.85659V2.08337H10.9508V28.5363C10.9508 28.6716 11.0024 28.7909 11.1058 28.8942C11.2091 28.9975 11.3284 29.0492 11.4637 29.0492H37.9166V31.1434H31.1537V37.9167H29.0599ZM29.0599 26.9555V11.453C29.0599 11.3249 29.0064 11.2074 28.8995 11.1005C28.7926 10.9935 28.6751 10.94 28.547 10.94H13.0445V8.84629H28.547C29.2578 8.84629 29.8699 9.1031 30.3833 9.61671C30.8969 10.13 31.1537 10.7421 31.1537 11.453V26.9555H29.0599Z" fill="white"/>
</g>
</svg>
