<svg width="40" height="40" viewBox="0 0 40 40" fill="none" xmlns="http://www.w3.org/2000/svg"><mask id="mask0_1744_197" style="mask-type:alpha" maskUnits="userSpaceOnUse" x="0" y="0" width="40" height="40"><path fill="#d9d9d9" d="M0 0h40v40H0z"/></mask><g mask="url(#mask0_1744_197)"><path d="M29.06 37.917v-6.774H11.464a2.5 2.5 0 0 1-1.841-.766 2.5 2.5 0 0 1-.766-1.84V10.94H2.083V8.846h6.774V2.083h2.094v26.453q0 .204.155.358a.5.5 0 0 0 .358.155h26.453v2.094h-6.763v6.774zm0-10.961V11.453a.5.5 0 0 0-.16-.352.5.5 0 0 0-.353-.161H13.044V8.846h15.503q1.066 0 1.836.77t.77 1.837v15.503z" fill="#fff"/></g></svg>