<svg width="62" height="62" viewBox="0 0 62 62" fill="none" xmlns="http://www.w3.org/2000/svg">
<path d="M30.9189 24.7485C31.7031 24.7485 32.3389 24.1127 32.3389 23.3284C32.3389 22.5442 31.7031 21.9084 30.9189 21.9084C30.1346 21.9084 29.4988 22.5442 29.4988 23.3284C29.4988 24.1127 30.1346 24.7485 30.9189 24.7485Z" fill="white"/>
<path d="M37.5645 36.2569C38.3488 36.2569 38.9845 35.6211 38.9845 34.8368C38.9845 34.0526 38.3488 33.4168 37.5645 33.4168C36.7802 33.4168 36.1445 34.0526 36.1445 34.8368C36.1445 35.6211 36.7802 36.2569 37.5645 36.2569Z" fill="white"/>
<path d="M24.2753 36.2569C25.0596 36.2569 25.6953 35.6211 25.6953 34.8368C25.6953 34.0526 25.0596 33.4168 24.2753 33.4168C23.491 33.4168 22.8552 34.0526 22.8552 34.8368C22.8552 35.6211 23.491 36.2569 24.2753 36.2569Z" fill="white"/>
<path d="M41.0135 46.3119C41.7978 46.3119 42.4335 45.6761 42.4335 44.8918C42.4335 44.1076 41.7978 43.4718 41.0135 43.4718C40.2292 43.4718 39.5934 44.1076 39.5934 44.8918C39.5934 45.6761 40.2292 46.3119 41.0135 46.3119Z" fill="white"/>
<path d="M30.9189 49.592C31.7031 49.592 32.3389 48.9562 32.3389 48.1719C32.3389 47.3877 31.7031 46.7519 30.9189 46.7519C30.1346 46.7519 29.4988 47.3877 29.4988 48.1719C29.4988 48.9562 30.1346 49.592 30.9189 49.592Z" fill="white"/>
<path d="M20.8263 46.3119C21.6106 46.3119 22.2463 45.6761 22.2463 44.8918C22.2463 44.1076 21.6106 43.4718 20.8263 43.4718C20.042 43.4718 19.4063 44.1076 19.4063 44.8918C19.4063 45.6761 20.042 46.3119 20.8263 46.3119Z" fill="white"/>
<path d="M14.5873 37.727C15.3716 37.727 16.0073 37.0912 16.0073 36.3069C16.0073 35.5227 15.3716 34.8869 14.5873 34.8869C13.803 34.8869 13.1672 35.5227 13.1672 36.3069C13.1672 37.0912 13.803 37.727 14.5873 37.727Z" fill="white"/>
<path d="M14.5873 27.1548C15.3716 27.1548 16.0073 26.5191 16.0073 25.7348C16.0073 24.9505 15.3716 24.3147 14.5873 24.3147C13.803 24.3147 13.1672 24.9505 13.1672 25.7348C13.1672 26.5191 13.803 27.1548 14.5873 27.1548Z" fill="white"/>
<path d="M9.65364 23.6537C10.4379 23.6537 11.0737 23.0179 11.0737 22.2337C11.0737 21.4494 10.4379 20.8136 9.65364 20.8136C8.86937 20.8136 8.2336 21.4494 8.2336 22.2337C8.2336 23.0179 8.86937 23.6537 9.65364 23.6537Z" fill="white"/>
<path d="M14.6436 16.1448C15.4279 16.1448 16.0636 15.509 16.0636 14.7247C16.0636 13.9405 15.4279 13.3047 14.6436 13.3047C13.8593 13.3047 13.2236 13.9405 13.2236 14.7247C13.2236 15.509 13.8593 16.1448 14.6436 16.1448Z" fill="white"/>
<path d="M22.1108 11.1548C22.8951 11.1548 23.5309 10.519 23.5309 9.73477C23.5309 8.9505 22.8951 8.31473 22.1108 8.31473C21.3266 8.31473 20.6908 8.9505 20.6908 9.73477C20.6908 10.519 21.3266 11.1548 22.1108 11.1548Z" fill="white"/>
<path d="M30.9189 9.40114C31.7031 9.40114 32.3389 8.76536 32.3389 7.98109C32.3389 7.19682 31.7031 6.56105 30.9189 6.56105C30.1346 6.56105 29.4988 7.19682 29.4988 7.98109C29.4988 8.76536 30.1346 9.40114 30.9189 9.40114Z" fill="white"/>
<path d="M39.729 11.1548C40.5133 11.1548 41.149 10.519 41.149 9.73477C41.149 8.9505 40.5133 8.31473 39.729 8.31473C38.9447 8.31473 38.309 8.9505 38.309 9.73477C38.309 10.519 38.9447 11.1548 39.729 11.1548Z" fill="white"/>
<path d="M47.1962 16.1448C47.9805 16.1448 48.6163 15.509 48.6163 14.7247C48.6163 13.9405 47.9805 13.3047 47.1962 13.3047C46.412 13.3047 45.7762 13.9405 45.7762 14.7247C45.7762 15.509 46.412 16.1448 47.1962 16.1448Z" fill="white"/>
<path d="M52.1862 23.612C52.9705 23.612 53.6062 22.9762 53.6062 22.192C53.6062 21.4077 52.9705 20.7719 52.1862 20.7719C51.4019 20.7719 50.7662 21.4077 50.7662 22.192C50.7662 22.9762 51.4019 23.612 52.1862 23.612Z" fill="white"/>
<path d="M53.9378 32.42C54.722 32.42 55.3578 31.7843 55.3578 31C55.3578 30.2157 54.722 29.58 53.9378 29.58C53.1535 29.58 52.5177 30.2157 52.5177 31C52.5177 31.7843 53.1535 32.42 53.9378 32.42Z" fill="white"/>
<path d="M52.1862 41.2281C52.9705 41.2281 53.6062 40.5923 53.6062 39.808C53.6062 39.0238 52.9705 38.388 52.1862 38.388C51.4019 38.388 50.7662 39.0238 50.7662 39.808C50.7662 40.5923 51.4019 41.2281 52.1862 41.2281Z" fill="white"/>
<path d="M47.1962 48.6974C47.9805 48.6974 48.6163 48.0616 48.6163 47.2774C48.6163 46.4931 47.9805 45.8573 47.1962 45.8573C46.412 45.8573 45.7762 46.4931 45.7762 47.2774C45.7762 48.0616 46.412 48.6974 47.1962 48.6974Z" fill="white"/>
<path d="M39.729 53.6853C40.5133 53.6853 41.149 53.0495 41.149 52.2652C41.149 51.481 40.5133 50.8452 39.729 50.8452C38.9447 50.8452 38.309 51.481 38.309 52.2652C38.309 53.0495 38.9447 53.6853 39.729 53.6853Z" fill="white"/>
<path d="M30.9189 55.439C31.7031 55.439 32.3389 54.8032 32.3389 54.0189C32.3389 53.2347 31.7031 52.5989 30.9189 52.5989C30.1346 52.5989 29.4988 53.2347 29.4988 54.0189C29.4988 54.8032 30.1346 55.439 30.9189 55.439Z" fill="white"/>
<path d="M23.5309 52.2652C23.5309 53.0493 22.8949 53.6853 22.1108 53.6853C21.3268 53.6853 20.6908 53.0493 20.6908 52.2652C20.6908 51.4812 21.3268 50.8452 22.1108 50.8452C22.8949 50.8452 23.5309 51.4812 23.5309 52.2652Z" fill="white"/>
<path d="M14.6436 48.6974C15.4279 48.6974 16.0636 48.0616 16.0636 47.2774C16.0636 46.4931 15.4279 45.8573 14.6436 45.8573C13.8593 45.8573 13.2236 46.4931 13.2236 47.2774C13.2236 48.0616 13.8593 48.6974 14.6436 48.6974Z" fill="white"/>
<path d="M9.65364 41.2281C10.4379 41.2281 11.0737 40.5923 11.0737 39.808C11.0737 39.0238 10.4379 38.388 9.65364 38.388C8.86937 38.388 8.2336 39.0238 8.2336 39.808C8.2336 40.5923 8.86937 41.2281 9.65364 41.2281Z" fill="white"/>
<path d="M7.90201 32.42C8.68628 32.42 9.32206 31.7843 9.32206 31C9.32206 30.2157 8.68628 29.58 7.90201 29.58C7.11774 29.58 6.48197 30.2157 6.48197 31C6.48197 31.7843 7.11774 32.42 7.90201 32.42Z" fill="white"/>
<path d="M30.9189 61.2839C31.7031 61.2839 32.3389 60.6481 32.3389 59.8638C32.3389 59.0796 31.7031 58.4438 30.9189 58.4438C30.1346 58.4438 29.4988 59.0796 29.4988 59.8638C29.4988 60.6481 30.1346 61.2839 30.9189 61.2839Z" fill="white"/>
<path d="M35.2207 60.9607C36.005 60.9607 36.6407 60.3249 36.6407 59.5406C36.6407 58.7564 36.005 58.1206 35.2207 58.1206C34.4364 58.1206 33.8006 58.7564 33.8006 59.5406C33.8006 60.3249 34.4364 60.9607 35.2207 60.9607Z" fill="white"/>
<path d="M39.4266 60.0015C40.2109 60.0015 40.8467 59.3657 40.8467 58.5814C40.8467 57.7972 40.2109 57.1614 39.4266 57.1614C38.6424 57.1614 38.0066 57.7972 38.0066 58.5814C38.0066 59.3657 38.6424 60.0015 39.4266 60.0015Z" fill="white"/>
<path d="M43.4428 58.425C44.2271 58.425 44.8629 57.7893 44.8629 57.005C44.8629 56.2207 44.2271 55.5849 43.4428 55.5849C42.6585 55.5849 42.0228 56.2207 42.0228 57.005C42.0228 57.7893 42.6585 58.425 43.4428 58.425Z" fill="white"/>
<path d="M47.1795 56.2689C47.9638 56.2689 48.5996 55.6331 48.5996 54.8489C48.5996 54.0646 47.9638 53.4288 47.1795 53.4288C46.3953 53.4288 45.7595 54.0646 45.7595 54.8489C45.7595 55.6331 46.3953 56.2689 47.1795 56.2689Z" fill="white"/>
<path d="M50.5514 53.579C51.3356 53.579 51.9714 52.9432 51.9714 52.1589C51.9714 51.3746 51.3356 50.7389 50.5514 50.7389C49.7671 50.7389 49.1313 51.3746 49.1313 52.1589C49.1313 52.9432 49.7671 53.579 50.5514 53.579Z" fill="white"/>
<path d="M53.4853 50.4156C54.2696 50.4156 54.9053 49.7799 54.9053 48.9956C54.9053 48.2113 54.2696 47.5755 53.4853 47.5755C52.701 47.5755 52.0653 48.2113 52.0653 48.9956C52.0653 49.7799 52.701 50.4156 53.4853 50.4156Z" fill="white"/>
<path d="M55.9167 46.852C56.7009 46.852 57.3367 46.2162 57.3367 45.4319C57.3367 44.6477 56.7009 44.0119 55.9167 44.0119C55.1324 44.0119 54.4966 44.6477 54.4966 45.4319C54.4966 46.2162 55.1324 46.852 55.9167 46.852Z" fill="white"/>
<path d="M57.7871 42.9651C58.5714 42.9651 59.2072 42.3293 59.2072 41.545C59.2072 40.7608 58.5714 40.125 57.7871 40.125C57.0028 40.125 56.3671 40.7608 56.3671 41.545C56.3671 42.3293 57.0028 42.9651 57.7871 42.9651Z" fill="white"/>
<path d="M59.0591 38.8426C59.8434 38.8426 60.4792 38.2068 60.4792 37.4225C60.4792 36.6383 59.8434 36.0025 59.0591 36.0025C58.2749 36.0025 57.6391 36.6383 57.6391 37.4225C57.6391 38.2068 58.2749 38.8426 59.0591 38.8426Z" fill="white"/>
<path d="M59.7035 34.5762C60.4878 34.5762 61.1235 33.9404 61.1235 33.1561C61.1235 32.3719 60.4878 31.7361 59.7035 31.7361C58.9192 31.7361 58.2834 32.3719 58.2834 33.1561C58.2834 33.9404 58.9192 34.5762 59.7035 34.5762Z" fill="white"/>
<path d="M59.7035 30.2639C60.4878 30.2639 61.1235 29.6281 61.1235 28.8439C61.1235 28.0596 60.4878 27.4238 59.7035 27.4238C58.9192 27.4238 58.2834 28.0596 58.2834 28.8439C58.2834 29.6281 58.9192 30.2639 59.7035 30.2639Z" fill="white"/>
<path d="M59.0591 25.9975C59.8434 25.9975 60.4792 25.3617 60.4792 24.5775C60.4792 23.7932 59.8434 23.1574 59.0591 23.1574C58.2749 23.1574 57.6391 23.7932 57.6391 24.5775C57.6391 25.3617 58.2749 25.9975 59.0591 25.9975Z" fill="white"/>
<path d="M57.7871 21.875C58.5714 21.875 59.2072 21.2392 59.2072 20.455C59.2072 19.6707 58.5714 19.0349 57.7871 19.0349C57.0028 19.0349 56.3671 19.6707 56.3671 20.455C56.3671 21.2392 57.0028 21.875 57.7871 21.875Z" fill="white"/>
<path d="M55.9167 17.9881C56.7009 17.9881 57.3367 17.3524 57.3367 16.5681C57.3367 15.7838 56.7009 15.148 55.9167 15.148C55.1324 15.148 54.4966 15.7838 54.4966 16.5681C54.4966 17.3524 55.1324 17.9881 55.9167 17.9881Z" fill="white"/>
<path d="M53.4853 14.4245C54.2696 14.4245 54.9053 13.7887 54.9053 13.0044C54.9053 12.2202 54.2696 11.5844 53.4853 11.5844C52.701 11.5844 52.0653 12.2202 52.0653 13.0044C52.0653 13.7887 52.701 14.4245 53.4853 14.4245Z" fill="white"/>
<path d="M50.5514 11.2612C51.3356 11.2612 51.9714 10.6254 51.9714 9.84112C51.9714 9.05685 51.3356 8.42108 50.5514 8.42108C49.7671 8.42108 49.1313 9.05685 49.1313 9.84112C49.1313 10.6254 49.7671 11.2612 50.5514 11.2612Z" fill="white"/>
<path d="M47.1795 8.57121C47.9638 8.57121 48.5996 7.93543 48.5996 7.15116C48.5996 6.36689 47.9638 5.73112 47.1795 5.73112C46.3953 5.73112 45.7595 6.36689 45.7595 7.15116C45.7595 7.93543 46.3953 8.57121 47.1795 8.57121Z" fill="white"/>
<path d="M43.4428 6.41508C44.2271 6.41508 44.8629 5.7793 44.8629 4.99503C44.8629 4.21076 44.2271 3.57499 43.4428 3.57499C42.6585 3.57499 42.0228 4.21076 42.0228 4.99503C42.0228 5.7793 42.6585 6.41508 43.4428 6.41508Z" fill="white"/>
<path d="M39.4266 4.83864C40.2109 4.83864 40.8467 4.20287 40.8467 3.4186C40.8467 2.63433 40.2109 1.99855 39.4266 1.99855C38.6424 1.99855 38.0066 2.63433 38.0066 3.4186C38.0066 4.20287 38.6424 4.83864 39.4266 4.83864Z" fill="white"/>
<path d="M35.2207 3.87943C36.005 3.87943 36.6407 3.24365 36.6407 2.45938C36.6407 1.67511 36.005 1.03933 35.2207 1.03933C34.4364 1.03933 33.8006 1.67511 33.8006 2.45938C33.8006 3.24365 34.4364 3.87943 35.2207 3.87943Z" fill="white"/>
<path d="M30.9189 3.55622C31.7031 3.55622 32.3389 2.92044 32.3389 2.13617C32.3389 1.3519 31.7031 0.716125 30.9189 0.716125C30.1346 0.716125 29.4988 1.3519 29.4988 2.13617C29.4988 2.92044 30.1346 3.55622 30.9189 3.55622Z" fill="white"/>
<path d="M26.617 3.87943C27.4013 3.87943 28.0371 3.24365 28.0371 2.45938C28.0371 1.67511 27.4013 1.03933 26.617 1.03933C25.8327 1.03933 25.197 1.67511 25.197 2.45938C25.197 3.24365 25.8327 3.87943 26.617 3.87943Z" fill="white"/>
<path d="M22.4111 4.83864C23.1954 4.83864 23.8311 4.20287 23.8311 3.4186C23.8311 2.63433 23.1954 1.99855 22.4111 1.99855C21.6268 1.99855 20.9911 2.63433 20.9911 3.4186C20.9911 4.20287 21.6268 4.83864 22.4111 4.83864Z" fill="white"/>
<path d="M18.397 6.41508C19.1813 6.41508 19.8171 5.7793 19.8171 4.99503C19.8171 4.21076 19.1813 3.57499 18.397 3.57499C17.6128 3.57499 16.977 4.21076 16.977 4.99503C16.977 5.7793 17.6128 6.41508 18.397 6.41508Z" fill="white"/>
<path d="M14.6603 8.57121C15.4446 8.57121 16.0803 7.93543 16.0803 7.15116C16.0803 6.36689 15.4446 5.73112 14.6603 5.73112C13.876 5.73112 13.2402 6.36689 13.2402 7.15116C13.2402 7.93543 13.876 8.57121 14.6603 8.57121Z" fill="white"/>
<path d="M11.2863 11.2612C12.0706 11.2612 12.7064 10.6254 12.7064 9.84112C12.7064 9.05685 12.0706 8.42108 11.2863 8.42108C10.5021 8.42108 9.8663 9.05685 9.8663 9.84112C9.8663 10.6254 10.5021 11.2612 11.2863 11.2612Z" fill="white"/>
<path d="M8.35246 14.4245C9.13673 14.4245 9.7725 13.7887 9.7725 13.0044C9.7725 12.2202 9.13673 11.5844 8.35246 11.5844C7.56819 11.5844 6.93241 12.2202 6.93241 13.0044C6.93241 13.7887 7.56819 14.4245 8.35246 14.4245Z" fill="white"/>
<path d="M5.92312 17.9881C6.70739 17.9881 7.34317 17.3524 7.34317 16.5681C7.34317 15.7838 6.70739 15.148 5.92312 15.148C5.13886 15.148 4.50308 15.7838 4.50308 16.5681C4.50308 17.3524 5.13886 17.9881 5.92312 17.9881Z" fill="white"/>
<path d="M4.05059 21.875C4.83486 21.875 5.47063 21.2392 5.47063 20.455C5.47063 19.6707 4.83486 19.0349 4.05059 19.0349C3.26632 19.0349 2.63054 19.6707 2.63054 20.455C2.63054 21.2392 3.26632 21.875 4.05059 21.875Z" fill="white"/>
<path d="M2.78071 25.9975C3.56498 25.9975 4.20076 25.3617 4.20076 24.5775C4.20076 23.7932 3.56498 23.1574 2.78071 23.1574C1.99644 23.1574 1.36066 23.7932 1.36066 24.5775C1.36066 25.3617 1.99644 25.9975 2.78071 25.9975Z" fill="white"/>
<path d="M2.13635 30.2639C2.92062 30.2639 3.5564 29.6281 3.5564 28.8439C3.5564 28.0596 2.92062 27.4238 2.13635 27.4238C1.35208 27.4238 0.716309 28.0596 0.716309 28.8439C0.716309 29.6281 1.35208 30.2639 2.13635 30.2639Z" fill="white"/>
<path d="M2.13635 34.5762C2.92062 34.5762 3.5564 33.9404 3.5564 33.1561C3.5564 32.3719 2.92062 31.7361 2.13635 31.7361C1.35208 31.7361 0.716309 32.3719 0.716309 33.1561C0.716309 33.9404 1.35208 34.5762 2.13635 34.5762Z" fill="white"/>
<path d="M2.78071 38.8426C3.56498 38.8426 4.20076 38.2068 4.20076 37.4225C4.20076 36.6383 3.56498 36.0025 2.78071 36.0025C1.99644 36.0025 1.36066 36.6383 1.36066 37.4225C1.36066 38.2068 1.99644 38.8426 2.78071 38.8426Z" fill="white"/>
<path d="M5.47063 41.545C5.47063 42.3291 4.83464 42.9651 4.05059 42.9651C3.26654 42.9651 2.63054 42.3291 2.63054 41.545C2.63054 40.761 3.26654 40.125 4.05059 40.125C4.83464 40.125 5.47063 40.761 5.47063 41.545Z" fill="white"/>
<path d="M5.92312 46.852C6.70739 46.852 7.34317 46.2162 7.34317 45.4319C7.34317 44.6477 6.70739 44.0119 5.92312 44.0119C5.13886 44.0119 4.50308 44.6477 4.50308 45.4319C4.50308 46.2162 5.13886 46.852 5.92312 46.852Z" fill="white"/>
<path d="M8.35246 50.4156C9.13673 50.4156 9.7725 49.7799 9.7725 48.9956C9.7725 48.2113 9.13673 47.5755 8.35246 47.5755C7.56819 47.5755 6.93241 48.2113 6.93241 48.9956C6.93241 49.7799 7.56819 50.4156 8.35246 50.4156Z" fill="white"/>
<path d="M11.2863 53.579C12.0706 53.579 12.7064 52.9432 12.7064 52.1589C12.7064 51.3746 12.0706 50.7389 11.2863 50.7389C10.5021 50.7389 9.8663 51.3746 9.8663 52.1589C9.8663 52.9432 10.5021 53.579 11.2863 53.579Z" fill="white"/>
<path d="M14.6603 56.2689C15.4446 56.2689 16.0803 55.6331 16.0803 54.8489C16.0803 54.0646 15.4446 53.4288 14.6603 53.4288C13.876 53.4288 13.2402 54.0646 13.2402 54.8489C13.2402 55.6331 13.876 56.2689 14.6603 56.2689Z" fill="white"/>
<path d="M18.397 58.425C19.1813 58.425 19.8171 57.7893 19.8171 57.005C19.8171 56.2207 19.1813 55.5849 18.397 55.5849C17.6128 55.5849 16.977 56.2207 16.977 57.005C16.977 57.7893 17.6128 58.425 18.397 58.425Z" fill="white"/>
<path d="M22.4111 60.0015C23.1954 60.0015 23.8311 59.3657 23.8311 58.5814C23.8311 57.7972 23.1954 57.1614 22.4111 57.1614C21.6268 57.1614 20.9911 57.7972 20.9911 58.5814C20.9911 59.3657 21.6268 60.0015 22.4111 60.0015Z" fill="white"/>
<path d="M26.617 60.9607C27.4013 60.9607 28.0371 60.3249 28.0371 59.5406C28.0371 58.7564 27.4013 58.1206 26.617 58.1206C25.8327 58.1206 25.197 58.7564 25.197 59.5406C25.197 60.3249 25.8327 60.9607 26.617 60.9607Z" fill="white"/>
<path d="M5.86268 27.7846C5.86268 28.5686 5.22669 29.2046 4.44264 29.2046C3.65859 29.2046 3.02259 28.5686 3.02259 27.7846C3.02259 27.0005 3.65859 26.3645 4.44264 26.3645C5.22669 26.3645 5.86268 27.0005 5.86268 27.7846Z" fill="white"/>
<path d="M5.98152 22.9614C6.76579 22.9614 7.40156 22.3256 7.40156 21.5414C7.40156 20.7571 6.76579 20.1213 5.98152 20.1213C5.19725 20.1213 4.56147 20.7571 4.56147 21.5414C4.56147 22.3256 5.19725 22.9614 5.98152 22.9614Z" fill="white"/>
<path d="M10.3897 15.8487C10.3897 16.6327 9.75373 17.2687 8.96968 17.2687C8.18563 17.2687 7.54963 16.6327 7.54963 15.8487C7.54963 15.0646 8.18563 14.4286 8.96968 14.4286C9.75373 14.4286 10.3897 15.0646 10.3897 15.8487Z" fill="white"/>
<path d="M13.234 12.456C14.0182 12.456 14.654 11.8202 14.654 11.036C14.654 10.2517 14.0182 9.61591 13.234 9.61591C12.4497 9.61591 11.8139 10.2517 11.8139 11.036C11.8139 11.8202 12.4497 12.456 13.234 12.456Z" fill="white"/>
<path d="M18.5242 8.80267C19.3085 8.80267 19.9443 8.16689 19.9443 7.38262C19.9443 6.59835 19.3085 5.96257 18.5242 5.96257C17.74 5.96257 17.1042 6.59835 17.1042 7.38262C17.1042 8.16689 17.74 8.80267 18.5242 8.80267Z" fill="white"/>
<path d="M25.9581 5.10346C25.9581 5.88751 25.3221 6.5235 24.538 6.5235C23.754 6.5235 23.118 5.88751 23.118 5.10346C23.118 4.31941 23.754 3.68341 24.538 3.68341C25.3221 3.68341 25.9581 4.31941 25.9581 5.10346Z" fill="white"/>
<path d="M30.9189 5.7478C31.7031 5.7478 32.3389 5.11203 32.3389 4.32776C32.3389 3.54349 31.7031 2.90771 30.9189 2.90771C30.1346 2.90771 29.4988 3.54349 29.4988 4.32776C29.4988 5.11203 30.1346 5.7478 30.9189 5.7478Z" fill="white"/>
<path d="M37.3018 6.5235C38.086 6.5235 38.7218 5.88773 38.7218 5.10346C38.7218 4.31919 38.086 3.68341 37.3018 3.68341C36.5175 3.68341 35.8817 4.31919 35.8817 5.10346C35.8817 5.88773 36.5175 6.5235 37.3018 6.5235Z" fill="white"/>
<path d="M43.3156 8.80267C44.0999 8.80267 44.7356 8.16689 44.7356 7.38262C44.7356 6.59835 44.0999 5.96257 43.3156 5.96257C42.5313 5.96257 41.8955 6.59835 41.8955 7.38262C41.8955 8.16689 42.5313 8.80267 43.3156 8.80267Z" fill="white"/>
<path d="M48.6059 12.456C49.3901 12.456 50.0259 11.8202 50.0259 11.036C50.0259 10.2517 49.3901 9.61591 48.6059 9.61591C47.8216 9.61591 47.1858 10.2517 47.1858 11.036C47.1858 11.8202 47.8216 12.456 48.6059 12.456Z" fill="white"/>
<path d="M52.8702 17.2687C53.6544 17.2687 54.2902 16.633 54.2902 15.8487C54.2902 15.0644 53.6544 14.4286 52.8702 14.4286C52.0859 14.4286 51.4501 15.0644 51.4501 15.8487C51.4501 16.633 52.0859 17.2687 52.8702 17.2687Z" fill="white"/>
<path d="M55.8583 22.9614C56.6425 22.9614 57.2783 22.3256 57.2783 21.5414C57.2783 20.7571 56.6425 20.1213 55.8583 20.1213C55.074 20.1213 54.4382 20.7571 54.4382 21.5414C54.4382 22.3256 55.074 22.9614 55.8583 22.9614Z" fill="white"/>
<path d="M57.3972 29.2046C58.1815 29.2046 58.8172 28.5688 58.8172 27.7846C58.8172 27.0003 58.1815 26.3645 57.3972 26.3645C56.6129 26.3645 55.9772 27.0003 55.9772 27.7846C55.9772 28.5688 56.6129 29.2046 57.3972 29.2046Z" fill="white"/>
<path d="M57.3972 35.6355C58.1815 35.6355 58.8172 34.9997 58.8172 34.2154C58.8172 33.4312 58.1815 32.7954 57.3972 32.7954C56.6129 32.7954 55.9772 33.4312 55.9772 34.2154C55.9772 34.9997 56.6129 35.6355 57.3972 35.6355Z" fill="white"/>
<path d="M55.8583 41.8787C56.6425 41.8787 57.2783 41.2429 57.2783 40.4586C57.2783 39.6744 56.6425 39.0386 55.8583 39.0386C55.074 39.0386 54.4382 39.6744 54.4382 40.4586C54.4382 41.2429 55.074 41.8787 55.8583 41.8787Z" fill="white"/>
<path d="M52.8702 47.5714C53.6544 47.5714 54.2902 46.9356 54.2902 46.1513C54.2902 45.3671 53.6544 44.7313 52.8702 44.7313C52.0859 44.7313 51.4501 45.3671 51.4501 46.1513C51.4501 46.9356 52.0859 47.5714 52.8702 47.5714Z" fill="white"/>
<path d="M48.6059 52.3841C49.3901 52.3841 50.0259 51.7483 50.0259 50.9641C50.0259 50.1798 49.3901 49.544 48.6059 49.544C47.8216 49.544 47.1858 50.1798 47.1858 50.9641C47.1858 51.7483 47.8216 52.3841 48.6059 52.3841Z" fill="white"/>
<path d="M43.3156 56.0374C44.0999 56.0374 44.7356 55.4017 44.7356 54.6174C44.7356 53.8331 44.0999 53.1973 43.3156 53.1973C42.5313 53.1973 41.8955 53.8331 41.8955 54.6174C41.8955 55.4017 42.5313 56.0374 43.3156 56.0374Z" fill="white"/>
<path d="M37.3018 58.3166C38.086 58.3166 38.7218 57.6808 38.7218 56.8966C38.7218 56.1123 38.086 55.4765 37.3018 55.4765C36.5175 55.4765 35.8817 56.1123 35.8817 56.8966C35.8817 57.6808 36.5175 58.3166 37.3018 58.3166Z" fill="white"/>
<path d="M30.9189 59.0923C31.7031 59.0923 32.3389 58.4565 32.3389 57.6723C32.3389 56.888 31.7031 56.2522 30.9189 56.2522C30.1346 56.2522 29.4988 56.888 29.4988 57.6723C29.4988 58.4565 30.1346 59.0923 30.9189 59.0923Z" fill="white"/>
<path d="M25.9581 56.8966C25.9581 57.6806 25.3221 58.3166 24.538 58.3166C23.754 58.3166 23.118 57.6806 23.118 56.8966C23.118 56.1125 23.754 55.4765 24.538 55.4765C25.3221 55.4765 25.9581 56.1125 25.9581 56.8966Z" fill="white"/>
<path d="M19.9443 54.6174C19.9443 55.4014 19.3083 56.0374 18.5242 56.0374C17.7402 56.0374 17.1042 55.4014 17.1042 54.6174C17.1042 53.8333 17.7402 53.1973 18.5242 53.1973C19.3083 53.1973 19.9443 53.8333 19.9443 54.6174Z" fill="white"/>
<path d="M13.234 52.3841C14.0182 52.3841 14.654 51.7483 14.654 50.9641C14.654 50.1798 14.0182 49.544 13.234 49.544C12.4497 49.544 11.8139 50.1798 11.8139 50.9641C11.8139 51.7483 12.4497 52.3841 13.234 52.3841Z" fill="white"/>
<path d="M8.96968 47.5714C9.75395 47.5714 10.3897 46.9356 10.3897 46.1513C10.3897 45.3671 9.75395 44.7313 8.96968 44.7313C8.18541 44.7313 7.54963 45.3671 7.54963 46.1513C7.54963 46.9356 8.18541 47.5714 8.96968 47.5714Z" fill="white"/>
<path d="M5.98152 41.8787C6.76579 41.8787 7.40156 41.2429 7.40156 40.4586C7.40156 39.6744 6.76579 39.0386 5.98152 39.0386C5.19725 39.0386 4.56147 39.6744 4.56147 40.4586C4.56147 41.2429 5.19725 41.8787 5.98152 41.8787Z" fill="white"/>
<path d="M5.86268 34.2154C5.86268 34.9995 5.22669 35.6355 4.44264 35.6355C3.65859 35.6355 3.02259 34.9995 3.02259 34.2154C3.02259 33.4314 3.65859 32.7954 4.44264 32.7954C5.22669 32.7954 5.86268 33.4314 5.86268 34.2154Z" fill="white"/>
<path d="M20.8263 18.5282C21.6106 18.5282 22.2463 17.8924 22.2463 17.1082C22.2463 16.3239 21.6106 15.6881 20.8263 15.6881C20.042 15.6881 19.4063 16.3239 19.4063 17.1082C19.4063 17.8924 20.042 18.5282 20.8263 18.5282Z" fill="white"/>
<path d="M30.9189 15.2481C31.7031 15.2481 32.3389 14.6124 32.3389 13.8281C32.3389 13.0438 31.7031 12.408 30.9189 12.408C30.1346 12.408 29.4988 13.0438 29.4988 13.8281C29.4988 14.6124 30.1346 15.2481 30.9189 15.2481Z" fill="white"/>
<path d="M41.0135 18.5282C41.7978 18.5282 42.4335 17.8924 42.4335 17.1082C42.4335 16.3239 41.7978 15.6881 41.0135 15.6881C40.2292 15.6881 39.5934 16.3239 39.5934 17.1082C39.5934 17.8924 40.2292 18.5282 41.0135 18.5282Z" fill="white"/>
<path d="M47.2505 27.1131C48.0347 27.1131 48.6705 26.4774 48.6705 25.6931C48.6705 24.9088 48.0347 24.273 47.2505 24.273C46.4662 24.273 45.8304 24.9088 45.8304 25.6931C45.8304 26.4774 46.4662 27.1131 47.2505 27.1131Z" fill="white"/>
<path d="M47.2505 37.727C48.0347 37.727 48.6705 37.0912 48.6705 36.3069C48.6705 35.5227 48.0347 34.8869 47.2505 34.8869C46.4662 34.8869 45.8304 35.5227 45.8304 36.3069C45.8304 37.0912 46.4662 37.727 47.2505 37.727Z" fill="white"/>
</svg>
