<svg xmlns="http://www.w3.org/2000/svg" width="62" height="62" fill="none"><path fill="#fff" d="M30.919 24.749a1.42 1.42 0 1 0 0-2.84 1.42 1.42 0 0 0 0 2.84m6.646 11.508a1.42 1.42 0 1 0 0-2.84 1.42 1.42 0 0 0 0 2.84m-13.29 0a1.42 1.42 0 1 0 0-2.84 1.42 1.42 0 0 0 0 2.84m16.739 10.055a1.42 1.42 0 1 0 0-2.84 1.42 1.42 0 0 0 0 2.84m-10.095 3.28a1.42 1.42 0 1 0 0-2.84 1.42 1.42 0 0 0 0 2.84m-10.093-3.28a1.42 1.42 0 1 0 0-2.84 1.42 1.42 0 0 0 0 2.84m-6.239-8.585a1.42 1.42 0 1 0 0-2.84 1.42 1.42 0 0 0 0 2.84m0-10.572a1.42 1.42 0 1 0 0-2.84 1.42 1.42 0 0 0 0 2.84m-4.933-3.501a1.42 1.42 0 1 0 0-2.84 1.42 1.42 0 0 0 0 2.84m4.99-7.509a1.42 1.42 0 1 0 0-2.84 1.42 1.42 0 0 0 0 2.84m7.466-4.99a1.42 1.42 0 1 0 0-2.84 1.42 1.42 0 0 0 0 2.84m8.809-1.754a1.42 1.42 0 1 0 0-2.84 1.42 1.42 0 0 0 0 2.84m8.81 1.754a1.42 1.42 0 1 0 0-2.84 1.42 1.42 0 0 0 0 2.84m7.467 4.99a1.42 1.42 0 1 0 0-2.84 1.42 1.42 0 0 0 0 2.84m4.99 7.467a1.42 1.42 0 1 0 0-2.84 1.42 1.42 0 0 0 0 2.84m1.752 8.808a1.42 1.42 0 1 0 0-2.84 1.42 1.42 0 0 0 0 2.84m-1.752 8.808a1.42 1.42 0 1 0 0-2.84 1.42 1.42 0 0 0 0 2.84m-4.99 7.469a1.42 1.42 0 1 0 0-2.84 1.42 1.42 0 0 0 0 2.84m-7.467 4.988a1.42 1.42 0 1 0 0-2.84 1.42 1.42 0 0 0 0 2.84m-8.81 1.754a1.42 1.42 0 1 0 0-2.84 1.42 1.42 0 0 0 0 2.84m-7.389-3.174a1.42 1.42 0 1 1-2.84 0 1.42 1.42 0 0 1 2.84 0m-8.886-3.568a1.42 1.42 0 1 0 0-2.84 1.42 1.42 0 0 0 0 2.84m-4.99-7.469a1.42 1.42 0 1 0 0-2.84 1.42 1.42 0 0 0 0 2.84M7.902 32.42a1.42 1.42 0 1 0 0-2.84 1.42 1.42 0 0 0 0 2.84m23.017 28.864a1.42 1.42 0 1 0 0-2.84 1.42 1.42 0 0 0 0 2.84m4.301-.324a1.42 1.42 0 1 0 0-2.84 1.42 1.42 0 0 0 0 2.84m4.207-.958a1.42 1.42 0 1 0 0-2.84 1.42 1.42 0 0 0 0 2.84m4.016-1.577a1.42 1.42 0 1 0 0-2.84 1.42 1.42 0 0 0 0 2.84m3.737-2.156a1.42 1.42 0 1 0 0-2.84 1.42 1.42 0 0 0 0 2.84m3.371-2.69a1.42 1.42 0 1 0 0-2.84 1.42 1.42 0 0 0 0 2.84m2.934-3.163a1.42 1.42 0 1 0 0-2.84 1.42 1.42 0 0 0 0 2.84m2.432-3.564a1.42 1.42 0 1 0 0-2.84 1.42 1.42 0 0 0 0 2.84m1.87-3.887a1.42 1.42 0 1 0 0-2.84 1.42 1.42 0 0 0 0 2.84m1.273-4.122a1.42 1.42 0 1 0 0-2.84 1.42 1.42 0 0 0 0 2.84m.644-4.267a1.42 1.42 0 1 0 0-2.84 1.42 1.42 0 0 0 0 2.84m0-4.312a1.42 1.42 0 1 0 0-2.84 1.42 1.42 0 0 0 0 2.84m-.644-4.266a1.42 1.42 0 1 0 0-2.84 1.42 1.42 0 0 0 0 2.84m-1.273-4.123a1.42 1.42 0 1 0 0-2.84 1.42 1.42 0 0 0 0 2.84m-1.87-3.887a1.42 1.42 0 1 0 0-2.84 1.42 1.42 0 0 0 0 2.84m-2.432-3.563a1.42 1.42 0 1 0 0-2.84 1.42 1.42 0 0 0 0 2.84m-2.934-3.164a1.42 1.42 0 1 0 0-2.84 1.42 1.42 0 0 0 0 2.84m-3.371-2.69a1.42 1.42 0 1 0 0-2.84 1.42 1.42 0 0 0 0 2.84m-3.737-2.156a1.42 1.42 0 1 0 0-2.84 1.42 1.42 0 0 0 0 2.84m-4.016-1.576a1.42 1.42 0 1 0 0-2.84 1.42 1.42 0 0 0 0 2.84M35.22 3.88a1.42 1.42 0 1 0 0-2.84 1.42 1.42 0 0 0 0 2.84m-4.301-.324a1.42 1.42 0 1 0 0-2.84 1.42 1.42 0 0 0 0 2.84m-4.302.324a1.42 1.42 0 1 0 0-2.84 1.42 1.42 0 0 0 0 2.84m-4.206.959a1.42 1.42 0 1 0 0-2.84 1.42 1.42 0 0 0 0 2.84m-4.014 1.576a1.42 1.42 0 1 0 0-2.84 1.42 1.42 0 0 0 0 2.84M14.66 8.571a1.42 1.42 0 1 0 0-2.84 1.42 1.42 0 0 0 0 2.84m-3.374 2.69a1.42 1.42 0 1 0 0-2.84 1.42 1.42 0 0 0 0 2.84m-2.934 3.164a1.42 1.42 0 1 0 0-2.84 1.42 1.42 0 0 0 0 2.84m-2.429 3.563a1.42 1.42 0 1 0 0-2.84 1.42 1.42 0 0 0 0 2.84M4.05 21.875a1.42 1.42 0 1 0 0-2.84 1.42 1.42 0 0 0 0 2.84m-1.27 4.123a1.42 1.42 0 1 0 0-2.84 1.42 1.42 0 0 0 0 2.84m-.644 4.266a1.42 1.42 0 1 0 0-2.84 1.42 1.42 0 0 0 0 2.84m0 4.312a1.42 1.42 0 1 0 0-2.84 1.42 1.42 0 0 0 0 2.84m.644 4.267a1.42 1.42 0 1 0 0-2.84 1.42 1.42 0 0 0 0 2.84m2.69 2.702a1.42 1.42 0 1 1-2.84 0 1.42 1.42 0 0 1 2.84 0m.453 5.307a1.42 1.42 0 1 0 0-2.84 1.42 1.42 0 0 0 0 2.84m2.429 3.564a1.42 1.42 0 1 0 0-2.84 1.42 1.42 0 0 0 0 2.84m2.934 3.163a1.42 1.42 0 1 0 0-2.84 1.42 1.42 0 0 0 0 2.84m3.374 2.69a1.42 1.42 0 1 0 0-2.84 1.42 1.42 0 0 0 0 2.84m3.737 2.156a1.42 1.42 0 1 0 0-2.84 1.42 1.42 0 0 0 0 2.84m4.014 1.577a1.42 1.42 0 1 0 0-2.84 1.42 1.42 0 0 0 0 2.84m4.206.958a1.42 1.42 0 1 0 0-2.84 1.42 1.42 0 0 0 0 2.84"/><path fill="#fff" d="M5.863 27.785a1.42 1.42 0 1 1-2.841-.001 1.42 1.42 0 0 1 2.84 0m.12-4.823a1.42 1.42 0 1 0 0-2.84 1.42 1.42 0 0 0 0 2.84m4.408-7.112a1.42 1.42 0 1 1-2.84 0 1.42 1.42 0 0 1 2.84 0m2.844-3.393a1.42 1.42 0 1 0 0-2.84 1.42 1.42 0 0 0 0 2.84m5.29-3.653a1.42 1.42 0 1 0 0-2.84 1.42 1.42 0 0 0 0 2.84m7.434-3.7a1.42 1.42 0 1 1-2.84 0 1.42 1.42 0 0 1 2.84 0m4.961.645a1.42 1.42 0 1 0 0-2.84 1.42 1.42 0 0 0 0 2.84m6.383.776a1.42 1.42 0 1 0 0-2.84 1.42 1.42 0 0 0 0 2.84m6.014 2.279a1.42 1.42 0 1 0 0-2.84 1.42 1.42 0 0 0 0 2.84m5.29 3.653a1.42 1.42 0 1 0 0-2.84 1.42 1.42 0 0 0 0 2.84m4.264 4.813a1.42 1.42 0 1 0 0-2.84 1.42 1.42 0 0 0 0 2.84m2.988 5.692a1.42 1.42 0 1 0 0-2.84 1.42 1.42 0 0 0 0 2.84m1.539 6.244a1.42 1.42 0 1 0 0-2.84 1.42 1.42 0 0 0 0 2.84m0 6.431a1.42 1.42 0 1 0 0-2.84 1.42 1.42 0 0 0 0 2.84m-1.539 6.243a1.42 1.42 0 1 0 0-2.84 1.42 1.42 0 0 0 0 2.84m-2.988 5.692a1.42 1.42 0 1 0 0-2.84 1.42 1.42 0 0 0 0 2.84m-4.264 4.813a1.42 1.42 0 1 0 0-2.84 1.42 1.42 0 0 0 0 2.84m-5.29 3.653a1.42 1.42 0 1 0 0-2.84 1.42 1.42 0 0 0 0 2.84m-6.014 2.28a1.42 1.42 0 1 0 0-2.84 1.42 1.42 0 0 0 0 2.84m-6.383.775a1.42 1.42 0 1 0 0-2.84 1.42 1.42 0 0 0 0 2.84m-4.961-2.195a1.42 1.42 0 1 1-2.84-.001 1.42 1.42 0 0 1 2.84 0m-6.014-2.279a1.42 1.42 0 1 1-2.84 0 1.42 1.42 0 0 1 2.84 0m-6.71-2.233a1.42 1.42 0 1 0 0-2.84 1.42 1.42 0 0 0 0 2.84M8.97 47.571a1.42 1.42 0 1 0 0-2.84 1.42 1.42 0 0 0 0 2.84m-2.988-5.692a1.42 1.42 0 1 0 0-2.84 1.42 1.42 0 0 0 0 2.84m-.119-7.664a1.42 1.42 0 1 1-2.841 0 1.42 1.42 0 0 1 2.84 0m14.964-15.687a1.42 1.42 0 1 0 0-2.84 1.42 1.42 0 0 0 0 2.84m10.093-3.28a1.42 1.42 0 1 0 0-2.84 1.42 1.42 0 0 0 0 2.84m10.095 3.28a1.42 1.42 0 1 0 0-2.84 1.42 1.42 0 0 0 0 2.84m6.236 8.585a1.42 1.42 0 1 0 0-2.84 1.42 1.42 0 0 0 0 2.84m0 10.614a1.42 1.42 0 1 0 0-2.84 1.42 1.42 0 0 0 0 2.84"/></svg>