<svg width="40" height="40" viewBox="0 0 40 40" fill="none" xmlns="http://www.w3.org/2000/svg"><mask id="mask0_1744_232" style="mask-type:alpha" maskUnits="userSpaceOnUse" x="0" y="0" width="40" height="40"><path fill="#d9d9d9" d="M0 0h40v40H0z"/></mask><g mask="url(#mask0_1744_232)"><path d="M8.975 35.192q-1.737 0-2.952-1.215t-1.215-2.952q0-1.467.882-2.574a4.1 4.1 0 0 1 2.237-1.459V13.007A4.1 4.1 0 0 1 5.69 11.55q-.882-1.107-.882-2.574 0-1.737 1.215-2.952t2.952-1.215q1.467 0 2.574.882a4.1 4.1 0 0 1 1.458 2.237h13.985A4.05 4.05 0 0 1 28.45 5.69q1.114-.882 2.575-.882 1.737 0 2.952 1.215t1.215 2.952q0 1.46-.882 2.575a4.05 4.05 0 0 1-2.238 1.457v13.985q1.356.352 2.238 1.46.882 1.106.882 2.573 0 1.737-1.215 2.952t-2.952 1.215q-1.467 0-2.574-.882a4.1 4.1 0 0 1-1.459-2.238H13.007a4.1 4.1 0 0 1-1.458 2.238q-1.107.882-2.574.882m0-24.145q.879 0 1.476-.596.596-.596.596-1.476 0-.881-.596-1.477t-1.476-.596-1.477.595-.596 1.477.595 1.477 1.477.596m22.05 0q.881 0 1.477-.596t.596-1.476-.596-1.477q-.595-.596-1.476-.596t-1.477.595-.596 1.477.596 1.477 1.476.596M13.01 29.979h13.983a4.1 4.1 0 0 1 1.085-1.902 4.1 4.1 0 0 1 1.902-1.086V13.007a4.04 4.04 0 0 1-1.91-1.076 4.04 4.04 0 0 1-1.077-1.91H13.01a4.1 4.1 0 0 1-1.086 1.902 4.1 4.1 0 0 1-1.902 1.086v13.983q1.101.284 1.902 1.085a4.1 4.1 0 0 1 1.086 1.902m18.016 3.12q.881 0 1.477-.597.596-.595.596-1.476t-.596-1.477-1.476-.596-1.477.596-.596 1.476q0 .881.596 1.477t1.476.596m-22.05 0q.879 0 1.476-.597.596-.595.596-1.476t-.596-1.477-1.476-.596q-.881 0-1.477.596t-.596 1.476.595 1.477 1.477.596" fill="#fff"/></g></svg>