<svg width="221" height="44" viewBox="0 0 221 44" fill="none" xmlns="http://www.w3.org/2000/svg">
<path d="M21.9409 17.4585C22.5107 17.4585 22.9725 16.9967 22.9725 16.4269C22.9725 15.8572 22.5107 15.3953 21.9409 15.3953C21.3712 15.3953 20.9093 15.8572 20.9093 16.4269C20.9093 16.9967 21.3712 17.4585 21.9409 17.4585Z" fill="white"/>
<path d="M26.7687 25.8189C27.3384 25.8189 27.8003 25.3571 27.8003 24.7873C27.8003 24.2176 27.3384 23.7557 26.7687 23.7557C26.199 23.7557 25.7371 24.2176 25.7371 24.7873C25.7371 25.3571 26.199 25.8189 26.7687 25.8189Z" fill="white"/>
<path d="M17.1146 25.8189C17.6844 25.8189 18.1462 25.3571 18.1462 24.7873C18.1462 24.2176 17.6844 23.7557 17.1146 23.7557C16.5449 23.7557 16.083 24.2176 16.083 24.7873C16.083 25.3571 16.5449 25.8189 17.1146 25.8189Z" fill="white"/>
<path d="M29.2743 33.1235C29.844 33.1235 30.3059 32.6616 30.3059 32.0919C30.3059 31.5221 29.844 31.0603 29.2743 31.0603C28.7045 31.0603 28.2426 31.5221 28.2426 32.0919C28.2426 32.6616 28.7045 33.1235 29.2743 33.1235Z" fill="white"/>
<path d="M21.9409 35.5063C22.5107 35.5063 22.9725 35.0444 22.9725 34.4747C22.9725 33.905 22.5107 33.4431 21.9409 33.4431C21.3712 33.4431 20.9093 33.905 20.9093 34.4747C20.9093 35.0444 21.3712 35.5063 21.9409 35.5063Z" fill="white"/>
<path d="M14.6091 33.1235C15.1788 33.1235 15.6407 32.6616 15.6407 32.0919C15.6407 31.5221 15.1788 31.0603 14.6091 31.0603C14.0394 31.0603 13.5775 31.5221 13.5775 32.0919C13.5775 32.6616 14.0394 33.1235 14.6091 33.1235Z" fill="white"/>
<path d="M10.0767 26.8869C10.6464 26.8869 11.1083 26.425 11.1083 25.8553C11.1083 25.2855 10.6464 24.8237 10.0767 24.8237C9.50696 24.8237 9.0451 25.2855 9.0451 25.8553C9.0451 26.425 9.50696 26.8869 10.0767 26.8869Z" fill="white"/>
<path d="M10.0767 19.2066C10.6464 19.2066 11.1083 18.7448 11.1083 18.175C11.1083 17.6053 10.6464 17.1434 10.0767 17.1434C9.50696 17.1434 9.0451 17.6053 9.0451 18.175C9.0451 18.7448 9.50696 19.2066 10.0767 19.2066Z" fill="white"/>
<path d="M6.49261 16.6632C7.06235 16.6632 7.52421 16.2014 7.52421 15.6316C7.52421 15.0619 7.06235 14.6 6.49261 14.6C5.92287 14.6 5.461 15.0619 5.461 15.6316C5.461 16.2014 5.92287 16.6632 6.49261 16.6632Z" fill="white"/>
<path d="M10.1176 11.2083C10.6873 11.2083 11.1492 10.7464 11.1492 10.1767C11.1492 9.60695 10.6873 9.14508 10.1176 9.14508C9.54787 9.14508 9.086 9.60695 9.086 10.1767C9.086 10.7464 9.54787 11.2083 10.1176 11.2083Z" fill="white"/>
<path d="M15.5423 7.58328C16.112 7.58328 16.5739 7.12142 16.5739 6.55168C16.5739 5.98194 16.112 5.52007 15.5423 5.52007C14.9725 5.52007 14.5106 5.98194 14.5106 6.55168C14.5106 7.12142 14.9725 7.58328 15.5423 7.58328Z" fill="white"/>
<path d="M21.9409 6.30931C22.5107 6.30931 22.9725 5.84744 22.9725 5.2777C22.9725 4.70796 22.5107 4.2461 21.9409 4.2461C21.3712 4.2461 20.9093 4.70796 20.9093 5.2777C20.9093 5.84744 21.3712 6.30931 21.9409 6.30931Z" fill="white"/>
<path d="M28.3411 7.58328C28.9109 7.58328 29.3727 7.12142 29.3727 6.55168C29.3727 5.98194 28.9109 5.52007 28.3411 5.52007C27.7714 5.52007 27.3095 5.98194 27.3095 6.55168C27.3095 7.12142 27.7714 7.58328 28.3411 7.58328Z" fill="white"/>
<path d="M33.7658 11.2083C34.3355 11.2083 34.7974 10.7464 34.7974 10.1767C34.7974 9.60695 34.3355 9.14508 33.7658 9.14508C33.196 9.14508 32.7342 9.60695 32.7342 10.1767C32.7342 10.7464 33.196 11.2083 33.7658 11.2083Z" fill="white"/>
<path d="M37.3908 16.6329C37.9605 16.6329 38.4224 16.1711 38.4224 15.6013C38.4224 15.0316 37.9605 14.5697 37.3908 14.5697C36.821 14.5697 36.3592 15.0316 36.3592 15.6013C36.3592 16.1711 36.821 16.6329 37.3908 16.6329Z" fill="white"/>
<path d="M38.6632 23.0316C39.233 23.0316 39.6948 22.5697 39.6948 22C39.6948 21.4303 39.233 20.9684 38.6632 20.9684C38.0935 20.9684 37.6316 21.4303 37.6316 22C37.6316 22.5697 38.0935 23.0316 38.6632 23.0316Z" fill="white"/>
<path d="M37.3908 29.4303C37.9605 29.4303 38.4224 28.9684 38.4224 28.3987C38.4224 27.8289 37.9605 27.3671 37.3908 27.3671C36.821 27.3671 36.3592 27.8289 36.3592 28.3987C36.3592 28.9684 36.821 29.4303 37.3908 29.4303Z" fill="white"/>
<path d="M33.7658 34.8564C34.3355 34.8564 34.7974 34.3946 34.7974 33.8248C34.7974 33.2551 34.3355 32.7932 33.7658 32.7932C33.196 32.7932 32.7342 33.2551 32.7342 33.8248C32.7342 34.3946 33.196 34.8564 33.7658 34.8564Z" fill="white"/>
<path d="M28.3411 38.4799C28.9109 38.4799 29.3727 38.0181 29.3727 37.4483C29.3727 36.8786 28.9109 36.4167 28.3411 36.4167C27.7714 36.4167 27.3095 36.8786 27.3095 37.4483C27.3095 38.0181 27.7714 38.4799 28.3411 38.4799Z" fill="white"/>
<path d="M21.9409 39.7539C22.5107 39.7539 22.9725 39.2921 22.9725 38.7223C22.9725 38.1526 22.5107 37.6907 21.9409 37.6907C21.3712 37.6907 20.9093 38.1526 20.9093 38.7223C20.9093 39.2921 21.3712 39.7539 21.9409 39.7539Z" fill="white"/>
<path d="M16.5739 37.4483C16.5739 38.0179 16.1118 38.4799 15.5423 38.4799C14.9727 38.4799 14.5106 38.0179 14.5106 37.4483C14.5106 36.8788 14.9727 36.4167 15.5423 36.4167C16.1118 36.4167 16.5739 36.8788 16.5739 37.4483Z" fill="white"/>
<path d="M10.1176 34.8564C10.6873 34.8564 11.1492 34.3946 11.1492 33.8248C11.1492 33.2551 10.6873 32.7932 10.1176 32.7932C9.54787 32.7932 9.086 33.2551 9.086 33.8248C9.086 34.3946 9.54787 34.8564 10.1176 34.8564Z" fill="white"/>
<path d="M6.49261 29.4303C7.06235 29.4303 7.52421 28.9684 7.52421 28.3987C7.52421 27.8289 7.06235 27.3671 6.49261 27.3671C5.92287 27.3671 5.461 27.8289 5.461 28.3987C5.461 28.9684 5.92287 29.4303 6.49261 29.4303Z" fill="white"/>
<path d="M5.22012 23.0316C5.78986 23.0316 6.25173 22.5697 6.25173 22C6.25173 21.4303 5.78986 20.9684 5.22012 20.9684C4.65038 20.9684 4.18852 21.4303 4.18852 22C4.18852 22.5697 4.65038 23.0316 5.22012 23.0316Z" fill="white"/>
<path d="M21.9409 44C22.5107 44 22.9725 43.5381 22.9725 42.9684C22.9725 42.3987 22.5107 41.9368 21.9409 41.9368C21.3712 41.9368 20.9093 42.3987 20.9093 42.9684C20.9093 43.5381 21.3712 44 21.9409 44Z" fill="white"/>
<path d="M25.066 43.7652C25.6358 43.7652 26.0976 43.3033 26.0976 42.7336C26.0976 42.1639 25.6358 41.702 25.066 41.702C24.4963 41.702 24.0344 42.1639 24.0344 42.7336C24.0344 43.3033 24.4963 43.7652 25.066 43.7652Z" fill="white"/>
<path d="M28.1215 43.0684C28.6912 43.0684 29.1531 42.6065 29.1531 42.0368C29.1531 41.467 28.6912 41.0052 28.1215 41.0052C27.5517 41.0052 27.0899 41.467 27.0899 42.0368C27.0899 42.6065 27.5517 43.0684 28.1215 43.0684Z" fill="white"/>
<path d="M31.0391 41.9232C31.6088 41.9232 32.0707 41.4613 32.0707 40.8916C32.0707 40.3218 31.6088 39.86 31.0391 39.86C30.4693 39.86 30.0075 40.3218 30.0075 40.8916C30.0075 41.4613 30.4693 41.9232 31.0391 41.9232Z" fill="white"/>
<path d="M33.7536 40.3568C34.3234 40.3568 34.7853 39.895 34.7853 39.3252C34.7853 38.7555 34.3234 38.2936 33.7536 38.2936C33.1839 38.2936 32.722 38.7555 32.722 39.3252C32.722 39.895 33.1839 40.3568 33.7536 40.3568Z" fill="white"/>
<path d="M36.2031 38.4027C36.7729 38.4027 37.2347 37.9408 37.2347 37.3711C37.2347 36.8013 36.7729 36.3395 36.2031 36.3395C35.6334 36.3395 35.1715 36.8013 35.1715 37.3711C35.1715 37.9408 35.6334 38.4027 36.2031 38.4027Z" fill="white"/>
<path d="M38.3345 36.1047C38.9043 36.1047 39.3661 35.6428 39.3661 35.0731C39.3661 34.5033 38.9043 34.0415 38.3345 34.0415C37.7648 34.0415 37.3029 34.5033 37.3029 35.0731C37.3029 35.6428 37.7648 36.1047 38.3345 36.1047Z" fill="white"/>
<path d="M40.1008 33.5158C40.6705 33.5158 41.1324 33.0539 41.1324 32.4842C41.1324 31.9145 40.6705 31.4526 40.1008 31.4526C39.5311 31.4526 39.0692 31.9145 39.0692 32.4842C39.0692 33.0539 39.5311 33.5158 40.1008 33.5158Z" fill="white"/>
<path d="M41.4596 30.6922C42.0294 30.6922 42.4912 30.2303 42.4912 29.6605C42.4912 29.0908 42.0294 28.6289 41.4596 28.6289C40.8899 28.6289 40.428 29.0908 40.428 29.6605C40.428 30.2303 40.8899 30.6922 41.4596 30.6922Z" fill="white"/>
<path d="M42.3837 27.6973C42.9534 27.6973 43.4153 27.2355 43.4153 26.6657C43.4153 26.096 42.9534 25.6341 42.3837 25.6341C41.8139 25.6341 41.3521 26.096 41.3521 26.6657C41.3521 27.2355 41.8139 27.6973 42.3837 27.6973Z" fill="white"/>
<path d="M42.8518 24.598C43.4215 24.598 43.8834 24.1361 43.8834 23.5664C43.8834 22.9966 43.4215 22.5347 42.8518 22.5347C42.282 22.5347 41.8202 22.9966 41.8202 23.5664C41.8202 24.1361 42.282 24.598 42.8518 24.598Z" fill="white"/>
<path d="M42.8518 21.4653C43.4215 21.4653 43.8834 21.0034 43.8834 20.4337C43.8834 19.8639 43.4215 19.4021 42.8518 19.4021C42.282 19.4021 41.8202 19.8639 41.8202 20.4337C41.8202 21.0034 42.282 21.4653 42.8518 21.4653Z" fill="white"/>
<path d="M42.3837 18.3659C42.9534 18.3659 43.4153 17.904 43.4153 17.3343C43.4153 16.7646 42.9534 16.3027 42.3837 16.3027C41.8139 16.3027 41.3521 16.7646 41.3521 17.3343C41.3521 17.904 41.8139 18.3659 42.3837 18.3659Z" fill="white"/>
<path d="M41.4596 15.3711C42.0294 15.3711 42.4912 14.9092 42.4912 14.3395C42.4912 13.7697 42.0294 13.3079 41.4596 13.3079C40.8899 13.3079 40.428 13.7697 40.428 14.3395C40.428 14.9092 40.8899 15.3711 41.4596 15.3711Z" fill="white"/>
<path d="M40.1008 12.5474C40.6705 12.5474 41.1324 12.0855 41.1324 11.5158C41.1324 10.9461 40.6705 10.4842 40.1008 10.4842C39.5311 10.4842 39.0692 10.9461 39.0692 11.5158C39.0692 12.0855 39.5311 12.5474 40.1008 12.5474Z" fill="white"/>
<path d="M38.3345 9.95855C38.9043 9.95855 39.3661 9.49669 39.3661 8.92695C39.3661 8.35721 38.9043 7.89534 38.3345 7.89534C37.7648 7.89534 37.3029 8.35721 37.3029 8.92695C37.3029 9.49669 37.7648 9.95855 38.3345 9.95855Z" fill="white"/>
<path d="M36.2031 7.66054C36.7729 7.66054 37.2347 7.19868 37.2347 6.62894C37.2347 6.0592 36.7729 5.59733 36.2031 5.59733C35.6334 5.59733 35.1715 6.0592 35.1715 6.62894C35.1715 7.19868 35.6334 7.66054 36.2031 7.66054Z" fill="white"/>
<path d="M33.7536 5.7064C34.3234 5.7064 34.7853 5.24453 34.7853 4.67479C34.7853 4.10505 34.3234 3.64319 33.7536 3.64319C33.1839 3.64319 32.722 4.10505 32.722 4.67479C32.722 5.24453 33.1839 5.7064 33.7536 5.7064Z" fill="white"/>
<path d="M31.0391 4.14006C31.6088 4.14006 32.0707 3.67819 32.0707 3.10845C32.0707 2.53871 31.6088 2.07685 31.0391 2.07685C30.4693 2.07685 30.0075 2.53871 30.0075 3.10845C30.0075 3.67819 30.4693 4.14006 31.0391 4.14006Z" fill="white"/>
<path d="M28.1215 2.99484C28.6912 2.99484 29.1531 2.53297 29.1531 1.96323C29.1531 1.3935 28.6912 0.93163 28.1215 0.93163C27.5517 0.93163 27.0899 1.3935 27.0899 1.96323C27.0899 2.53297 27.5517 2.99484 28.1215 2.99484Z" fill="white"/>
<path d="M25.066 2.29801C25.6358 2.29801 26.0976 1.83614 26.0976 1.2664C26.0976 0.696664 25.6358 0.234798 25.066 0.234798C24.4963 0.234798 24.0344 0.696664 24.0344 1.2664C24.0344 1.83614 24.4963 2.29801 25.066 2.29801Z" fill="white"/>
<path d="M21.9409 2.06321C22.5107 2.06321 22.9725 1.60135 22.9725 1.03161C22.9725 0.461865 22.5107 0 21.9409 0C21.3712 0 20.9093 0.461865 20.9093 1.03161C20.9093 1.60135 21.3712 2.06321 21.9409 2.06321Z" fill="white"/>
<path d="M18.8158 2.29801C19.3855 2.29801 19.8474 1.83614 19.8474 1.2664C19.8474 0.696664 19.3855 0.234798 18.8158 0.234798C18.2461 0.234798 17.7842 0.696664 17.7842 1.2664C17.7842 1.83614 18.2461 2.29801 18.8158 2.29801Z" fill="white"/>
<path d="M15.7604 2.99484C16.3301 2.99484 16.792 2.53297 16.792 1.96323C16.792 1.3935 16.3301 0.93163 15.7604 0.93163C15.1906 0.93163 14.7288 1.3935 14.7288 1.96323C14.7288 2.53297 15.1906 2.99484 15.7604 2.99484Z" fill="white"/>
<path d="M12.8443 4.14006C13.4141 4.14006 13.8759 3.67819 13.8759 3.10845C13.8759 2.53871 13.4141 2.07685 12.8443 2.07685C12.2746 2.07685 11.8127 2.53871 11.8127 3.10845C11.8127 3.67819 12.2746 4.14006 12.8443 4.14006Z" fill="white"/>
<path d="M10.1297 5.7064C10.6995 5.7064 11.1613 5.24453 11.1613 4.67479C11.1613 4.10505 10.6995 3.64319 10.1297 3.64319C9.56 3.64319 9.09813 4.10505 9.09813 4.67479C9.09813 5.24453 9.56 5.7064 10.1297 5.7064Z" fill="white"/>
<path d="M7.6787 7.66054C8.24844 7.66054 8.71031 7.19868 8.71031 6.62894C8.71031 6.0592 8.24844 5.59733 7.6787 5.59733C7.10896 5.59733 6.6471 6.0592 6.6471 6.62894C6.6471 7.19868 7.10896 7.66054 7.6787 7.66054Z" fill="white"/>
<path d="M5.54735 9.95855C6.11709 9.95855 6.57895 9.49669 6.57895 8.92695C6.57895 8.35721 6.11709 7.89534 5.54735 7.89534C4.97761 7.89534 4.51574 8.35721 4.51574 8.92695C4.51574 9.49669 4.97761 9.95855 5.54735 9.95855Z" fill="white"/>
<path d="M3.78254 12.5474C4.35228 12.5474 4.81415 12.0855 4.81415 11.5158C4.81415 10.9461 4.35228 10.4842 3.78254 10.4842C3.2128 10.4842 2.75093 10.9461 2.75093 11.5158C2.75093 12.0855 3.2128 12.5474 3.78254 12.5474Z" fill="white"/>
<path d="M2.42222 15.3711C2.99196 15.3711 3.45382 14.9092 3.45382 14.3395C3.45382 13.7697 2.99196 13.3079 2.42222 13.3079C1.85248 13.3079 1.39061 13.7697 1.39061 14.3395C1.39061 14.9092 1.85248 15.3711 2.42222 15.3711Z" fill="white"/>
<path d="M1.4997 18.3659C2.06944 18.3659 2.53131 17.904 2.53131 17.3343C2.53131 16.7646 2.06944 16.3027 1.4997 16.3027C0.929964 16.3027 0.468099 16.7646 0.468099 17.3343C0.468099 17.904 0.929964 18.3659 1.4997 18.3659Z" fill="white"/>
<path d="M1.03161 21.4653C1.60135 21.4653 2.06321 21.0034 2.06321 20.4337C2.06321 19.8639 1.60135 19.4021 1.03161 19.4021C0.461865 19.4021 0 19.8639 0 20.4337C0 21.0034 0.461865 21.4653 1.03161 21.4653Z" fill="white"/>
<path d="M1.03161 24.598C1.60135 24.598 2.06321 24.1361 2.06321 23.5664C2.06321 22.9966 1.60135 22.5347 1.03161 22.5347C0.461865 22.5347 0 22.9966 0 23.5664C0 24.1361 0.461865 24.598 1.03161 24.598Z" fill="white"/>
<path d="M1.4997 27.6973C2.06944 27.6973 2.53131 27.2355 2.53131 26.6657C2.53131 26.096 2.06944 25.6341 1.4997 25.6341C0.929964 25.6341 0.468099 26.096 0.468099 26.6657C0.468099 27.2355 0.929964 27.6973 1.4997 27.6973Z" fill="white"/>
<path d="M3.45382 29.6605C3.45382 30.2301 2.9918 30.6922 2.42222 30.6922C1.85264 30.6922 1.39061 30.2301 1.39061 29.6605C1.39061 29.091 1.85264 28.6289 2.42222 28.6289C2.9918 28.6289 3.45382 29.091 3.45382 29.6605Z" fill="white"/>
<path d="M3.78254 33.5158C4.35228 33.5158 4.81415 33.0539 4.81415 32.4842C4.81415 31.9145 4.35228 31.4526 3.78254 31.4526C3.2128 31.4526 2.75093 31.9145 2.75093 32.4842C2.75093 33.0539 3.2128 33.5158 3.78254 33.5158Z" fill="white"/>
<path d="M5.54735 36.1047C6.11709 36.1047 6.57895 35.6428 6.57895 35.0731C6.57895 34.5033 6.11709 34.0415 5.54735 34.0415C4.97761 34.0415 4.51574 34.5033 4.51574 35.0731C4.51574 35.6428 4.97761 36.1047 5.54735 36.1047Z" fill="white"/>
<path d="M7.6787 38.4027C8.24844 38.4027 8.71031 37.9408 8.71031 37.3711C8.71031 36.8013 8.24844 36.3395 7.6787 36.3395C7.10896 36.3395 6.6471 36.8013 6.6471 37.3711C6.6471 37.9408 7.10896 38.4027 7.6787 38.4027Z" fill="white"/>
<path d="M10.1297 40.3568C10.6995 40.3568 11.1613 39.895 11.1613 39.3252C11.1613 38.7555 10.6995 38.2936 10.1297 38.2936C9.56 38.2936 9.09813 38.7555 9.09813 39.3252C9.09813 39.895 9.56 40.3568 10.1297 40.3568Z" fill="white"/>
<path d="M12.8443 41.9232C13.4141 41.9232 13.8759 41.4613 13.8759 40.8916C13.8759 40.3218 13.4141 39.86 12.8443 39.86C12.2746 39.86 11.8127 40.3218 11.8127 40.8916C11.8127 41.4613 12.2746 41.9232 12.8443 41.9232Z" fill="white"/>
<path d="M15.7604 43.0684C16.3301 43.0684 16.792 42.6065 16.792 42.0368C16.792 41.467 16.3301 41.0052 15.7604 41.0052C15.1906 41.0052 14.7288 41.467 14.7288 42.0368C14.7288 42.6065 15.1906 43.0684 15.7604 43.0684Z" fill="white"/>
<path d="M18.8158 43.7652C19.3855 43.7652 19.8474 43.3033 19.8474 42.7336C19.8474 42.1639 19.3855 41.702 18.8158 41.702C18.2461 41.702 17.7842 42.1639 17.7842 42.7336C17.7842 43.3033 18.2461 43.7652 18.8158 43.7652Z" fill="white"/>
<path d="M3.73863 19.6641C3.73863 20.2337 3.27661 20.6957 2.70703 20.6957C2.13745 20.6957 1.67542 20.2337 1.67542 19.6641C1.67542 19.0945 2.13745 18.6325 2.70703 18.6325C3.27661 18.6325 3.73863 19.0945 3.73863 19.6641Z" fill="white"/>
<path d="M3.82496 16.1603C4.3947 16.1603 4.85657 15.6984 4.85657 15.1287C4.85657 14.559 4.3947 14.0971 3.82496 14.0971C3.25522 14.0971 2.79335 14.559 2.79335 15.1287C2.79335 15.6984 3.25522 16.1603 3.82496 16.1603Z" fill="white"/>
<path d="M7.02734 10.9932C7.02734 11.5628 6.56532 12.0248 5.99574 12.0248C5.42616 12.0248 4.96413 11.5628 4.96413 10.9932C4.96413 10.4236 5.42616 9.96158 5.99574 9.96158C6.56532 9.96158 7.02734 10.4236 7.02734 10.9932Z" fill="white"/>
<path d="M9.09357 8.52854C9.66331 8.52854 10.1252 8.06668 10.1252 7.49694C10.1252 6.9272 9.66331 6.46533 9.09357 6.46533C8.52383 6.46533 8.06197 6.9272 8.06197 7.49694C8.06197 8.06668 8.52383 8.52854 9.09357 8.52854Z" fill="white"/>
<path d="M12.9367 5.87454C13.5065 5.87454 13.9683 5.41268 13.9683 4.84294C13.9683 4.2732 13.5065 3.81133 12.9367 3.81133C12.367 3.81133 11.9051 4.2732 11.9051 4.84294C11.9051 5.41268 12.367 5.87454 12.9367 5.87454Z" fill="white"/>
<path d="M18.3371 3.18722C18.3371 3.7568 17.8751 4.21882 17.3055 4.21882C16.7359 4.21882 16.2739 3.7568 16.2739 3.18722C16.2739 2.61764 16.7359 2.15561 17.3055 2.15561C17.8751 2.15561 18.3371 2.61764 18.3371 3.18722Z" fill="white"/>
<path d="M21.9409 3.65531C22.5107 3.65531 22.9725 3.19344 22.9725 2.6237C22.9725 2.05396 22.5107 1.5921 21.9409 1.5921C21.3712 1.5921 20.9093 2.05396 20.9093 2.6237C20.9093 3.19344 21.3712 3.65531 21.9409 3.65531Z" fill="white"/>
<path d="M26.5778 4.21882C27.1476 4.21882 27.6094 3.75696 27.6094 3.18722C27.6094 2.61748 27.1476 2.15561 26.5778 2.15561C26.0081 2.15561 25.5462 2.61748 25.5462 3.18722C25.5462 3.75696 26.0081 4.21882 26.5778 4.21882Z" fill="white"/>
<path d="M30.9466 5.87454C31.5164 5.87454 31.9782 5.41268 31.9782 4.84294C31.9782 4.2732 31.5164 3.81133 30.9466 3.81133C30.3769 3.81133 29.915 4.2732 29.915 4.84294C29.915 5.41268 30.3769 5.87454 30.9466 5.87454Z" fill="white"/>
<path d="M34.7898 8.52854C35.3595 8.52854 35.8214 8.06668 35.8214 7.49694C35.8214 6.9272 35.3595 6.46533 34.7898 6.46533C34.2201 6.46533 33.7582 6.9272 33.7582 7.49694C33.7582 8.06668 34.2201 8.52854 34.7898 8.52854Z" fill="white"/>
<path d="M37.8876 12.0248C38.4574 12.0248 38.9192 11.5629 38.9192 10.9932C38.9192 10.4234 38.4574 9.96158 37.8876 9.96158C37.3179 9.96158 36.856 10.4234 36.856 10.9932C36.856 11.5629 37.3179 12.0248 37.8876 12.0248Z" fill="white"/>
<path d="M40.0584 16.1603C40.6281 16.1603 41.09 15.6984 41.09 15.1287C41.09 14.559 40.6281 14.0971 40.0584 14.0971C39.4886 14.0971 39.0268 14.559 39.0268 15.1287C39.0268 15.6984 39.4886 16.1603 40.0584 16.1603Z" fill="white"/>
<path d="M41.1764 20.6957C41.7461 20.6957 42.208 20.2339 42.208 19.6641C42.208 19.0944 41.7461 18.6325 41.1764 18.6325C40.6066 18.6325 40.1447 19.0944 40.1447 19.6641C40.1447 20.2339 40.6066 20.6957 41.1764 20.6957Z" fill="white"/>
<path d="M41.1764 25.3675C41.7461 25.3675 42.208 24.9056 42.208 24.3359C42.208 23.7661 41.7461 23.3043 41.1764 23.3043C40.6066 23.3043 40.1447 23.7661 40.1447 24.3359C40.1447 24.9056 40.6066 25.3675 41.1764 25.3675Z" fill="white"/>
<path d="M40.0584 29.9029C40.6281 29.9029 41.09 29.4411 41.09 28.8713C41.09 28.3016 40.6281 27.8397 40.0584 27.8397C39.4886 27.8397 39.0268 28.3016 39.0268 28.8713C39.0268 29.4411 39.4886 29.9029 40.0584 29.9029Z" fill="white"/>
<path d="M37.8876 34.0384C38.4574 34.0384 38.9192 33.5766 38.9192 33.0068C38.9192 32.4371 38.4574 31.9752 37.8876 31.9752C37.3179 31.9752 36.856 32.4371 36.856 33.0068C36.856 33.5766 37.3179 34.0384 37.8876 34.0384Z" fill="white"/>
<path d="M34.7898 37.5347C35.3595 37.5347 35.8214 37.0728 35.8214 36.5031C35.8214 35.9333 35.3595 35.4715 34.7898 35.4715C34.2201 35.4715 33.7582 35.9333 33.7582 36.5031C33.7582 37.0728 34.2201 37.5347 34.7898 37.5347Z" fill="white"/>
<path d="M30.9466 40.1887C31.5164 40.1887 31.9782 39.7268 31.9782 39.1571C31.9782 38.5873 31.5164 38.1255 30.9466 38.1255C30.3769 38.1255 29.915 38.5873 29.915 39.1571C29.915 39.7268 30.3769 40.1887 30.9466 40.1887Z" fill="white"/>
<path d="M26.5778 41.8444C27.1476 41.8444 27.6094 41.3825 27.6094 40.8128C27.6094 40.2431 27.1476 39.7812 26.5778 39.7812C26.0081 39.7812 25.5462 40.2431 25.5462 40.8128C25.5462 41.3825 26.0081 41.8444 26.5778 41.8444Z" fill="white"/>
<path d="M21.9409 42.4079C22.5107 42.4079 22.9725 41.9461 22.9725 41.3763C22.9725 40.8066 22.5107 40.3447 21.9409 40.3447C21.3712 40.3447 20.9093 40.8066 20.9093 41.3763C20.9093 41.9461 21.3712 42.4079 21.9409 42.4079Z" fill="white"/>
<path d="M18.3371 40.8128C18.3371 41.3824 17.8751 41.8444 17.3055 41.8444C16.7359 41.8444 16.2739 41.3824 16.2739 40.8128C16.2739 40.2432 16.7359 39.7812 17.3055 39.7812C17.8751 39.7812 18.3371 40.2432 18.3371 40.8128Z" fill="white"/>
<path d="M13.9683 39.1571C13.9683 39.7267 13.5063 40.1887 12.9367 40.1887C12.3672 40.1887 11.9051 39.7267 11.9051 39.1571C11.9051 38.5875 12.3672 38.1255 12.9367 38.1255C13.5063 38.1255 13.9683 38.5875 13.9683 39.1571Z" fill="white"/>
<path d="M9.09357 37.5347C9.66331 37.5347 10.1252 37.0728 10.1252 36.5031C10.1252 35.9333 9.66331 35.4715 9.09357 35.4715C8.52383 35.4715 8.06197 35.9333 8.06197 36.5031C8.06197 37.0728 8.52383 37.5347 9.09357 37.5347Z" fill="white"/>
<path d="M5.99574 34.0384C6.56548 34.0384 7.02734 33.5766 7.02734 33.0068C7.02734 32.4371 6.56548 31.9752 5.99574 31.9752C5.426 31.9752 4.96413 32.4371 4.96413 33.0068C4.96413 33.5766 5.426 34.0384 5.99574 34.0384Z" fill="white"/>
<path d="M3.82496 29.9029C4.3947 29.9029 4.85657 29.4411 4.85657 28.8713C4.85657 28.3016 4.3947 27.8397 3.82496 27.8397C3.25522 27.8397 2.79335 28.3016 2.79335 28.8713C2.79335 29.4411 3.25522 29.9029 3.82496 29.9029Z" fill="white"/>
<path d="M3.73863 24.3359C3.73863 24.9055 3.27661 25.3675 2.70703 25.3675C2.13745 25.3675 1.67542 24.9055 1.67542 24.3359C1.67542 23.7663 2.13745 23.3043 2.70703 23.3043C3.27661 23.3043 3.73863 23.7663 3.73863 24.3359Z" fill="white"/>
<path d="M14.6091 12.9398C15.1788 12.9398 15.6407 12.4779 15.6407 11.9081C15.6407 11.3384 15.1788 10.8765 14.6091 10.8765C14.0394 10.8765 13.5775 11.3384 13.5775 11.9081C13.5775 12.4779 14.0394 12.9398 14.6091 12.9398Z" fill="white"/>
<path d="M21.9409 10.5569C22.5107 10.5569 22.9725 10.095 22.9725 9.52531C22.9725 8.95557 22.5107 8.4937 21.9409 8.4937C21.3712 8.4937 20.9093 8.95557 20.9093 9.52531C20.9093 10.095 21.3712 10.5569 21.9409 10.5569Z" fill="white"/>
<path d="M29.2743 12.9398C29.844 12.9398 30.3059 12.4779 30.3059 11.9081C30.3059 11.3384 29.844 10.8765 29.2743 10.8765C28.7045 10.8765 28.2426 11.3384 28.2426 11.9081C28.2426 12.4779 28.7045 12.9398 29.2743 12.9398Z" fill="white"/>
<path d="M33.8052 19.1763C34.3749 19.1763 34.8368 18.7145 34.8368 18.1447C34.8368 17.575 34.3749 17.1131 33.8052 17.1131C33.2354 17.1131 32.7736 17.575 32.7736 18.1447C32.7736 18.7145 33.2354 19.1763 33.8052 19.1763Z" fill="white"/>
<path d="M33.8052 26.8869C34.3749 26.8869 34.8368 26.425 34.8368 25.8553C34.8368 25.2855 34.3749 24.8237 33.8052 24.8237C33.2354 24.8237 32.7736 25.2855 32.7736 25.8553C32.7736 26.425 33.2354 26.8869 33.8052 26.8869Z" fill="white"/>
<path d="M68.8388 11.7612L60.6814 30.1817H58.7606L50.6032 11.7612H52.7088L59.7619 27.7609L66.8665 11.7612H68.8404H68.8388Z" fill="white"/>
<path d="M80.5228 23.8405H68.9434C69.0479 25.2796 69.6008 26.4415 70.6006 27.3277C71.6004 28.2139 72.8638 28.6562 74.3907 28.6562C75.2496 28.6562 76.0389 28.5032 76.7584 28.1957C77.478 27.8882 78.1006 27.4368 78.6262 26.8399L79.679 28.0503C79.064 28.7865 78.2975 29.3485 77.3765 29.7348C76.4554 30.1211 75.442 30.3134 74.3377 30.3134C72.9168 30.3134 71.658 30.0105 70.5612 29.4061C69.4645 28.8001 68.6101 27.9639 67.9951 26.8929C67.3816 25.8235 67.074 24.6131 67.074 23.2619C67.074 21.9106 67.3679 20.7003 67.9557 19.6308C68.5434 18.5613 69.3508 17.7266 70.3764 17.1313C71.4035 16.5345 72.5563 16.236 73.8363 16.236C75.1163 16.236 76.2661 16.5345 77.2841 17.1313C78.3005 17.7282 79.1003 18.5568 79.679 19.6187C80.2577 20.6806 80.547 21.8955 80.547 23.2634L80.5213 23.8421L80.5228 23.8405ZM70.4839 19.1173C69.5796 19.9686 69.0676 21.0775 68.9449 22.4454H78.761C78.6383 21.0775 78.1248 19.9671 77.222 19.1173C76.3176 18.2659 75.1906 17.8403 73.8408 17.8403C72.4911 17.8403 71.3883 18.2659 70.4855 19.1173H70.4839Z" fill="white"/>
<path d="M83.2722 29.8272C82.2467 29.503 81.4438 29.0955 80.8636 28.6032L81.7059 27.1293C82.2845 27.5852 83.0132 27.9579 83.8903 28.2472C84.7674 28.5365 85.6793 28.682 86.6276 28.682C87.891 28.682 88.8241 28.485 89.43 28.0897C90.036 27.6943 90.3374 27.1383 90.3374 26.4188C90.3374 25.9098 90.1708 25.5114 89.8375 25.2221C89.5043 24.9327 89.0831 24.7131 88.5742 24.5646C88.0652 24.4162 87.3896 24.2708 86.5473 24.1299C85.4248 23.9193 84.5205 23.7042 83.8373 23.4846C83.1525 23.2649 82.5693 22.8922 82.0876 22.3666C81.6044 21.841 81.3635 21.1123 81.3635 20.1822C81.3635 19.0249 81.8452 18.0766 82.8102 17.3404C83.7751 16.6042 85.1173 16.2345 86.8366 16.2345C87.7319 16.2345 88.6257 16.3527 89.5209 16.5905C90.4162 16.8268 91.1524 17.1389 91.7311 17.5252L90.9146 19.0249C89.7739 18.2356 88.4151 17.8403 86.8351 17.8403C85.6414 17.8403 84.7431 18.0508 84.1387 18.472C83.5328 18.8931 83.2313 19.446 83.2313 20.1292C83.2313 20.6548 83.4025 21.076 83.7449 21.3926C84.0872 21.7092 84.5129 21.9409 85.0203 22.0894C85.5293 22.2394 86.2307 22.3924 87.126 22.5499C88.2303 22.7605 89.1165 22.971 89.783 23.1816C90.4495 23.3921 91.0191 23.7512 91.4933 24.2601C91.9674 24.7691 92.2037 25.4705 92.2037 26.3658C92.2037 27.5761 91.6993 28.5365 90.6904 29.247C89.6815 29.9575 88.2818 30.3134 86.4928 30.3134C85.3703 30.3134 84.2947 30.1514 83.2692 29.8272H83.2722Z" fill="white"/>
<path d="M101.364 29.3409C101.012 29.656 100.579 29.8984 100.061 30.065C99.5431 30.2316 99.0038 30.315 98.4433 30.315C97.1451 30.315 96.1453 29.965 95.4439 29.2621C94.7426 28.5608 94.3911 27.5701 94.3911 26.2885V17.9205H91.9174V16.3421H94.3911V13.3154H96.2589V16.3421H100.469V17.9205H96.2589V26.184C96.2589 27.0096 96.4649 27.6352 96.877 28.0654C97.289 28.4956 97.8813 28.7107 98.6539 28.7107C99.0387 28.7107 99.4128 28.6502 99.7718 28.5259C100.131 28.4032 100.443 28.2275 100.706 28.0003L101.364 29.3424V29.3409Z" fill="white"/>
<path d="M103.154 12.9201C102.891 12.6565 102.759 12.3414 102.759 11.9733C102.759 11.6052 102.891 11.3159 103.154 11.0523C103.418 10.7887 103.742 10.6569 104.129 10.6569C104.515 10.6569 104.839 10.7841 105.103 11.0386C105.366 11.2931 105.498 11.5961 105.498 11.946C105.498 12.3323 105.366 12.6565 105.103 12.9201C104.839 13.1836 104.515 13.3154 104.129 13.3154C103.742 13.3154 103.418 13.1836 103.154 12.9201ZM103.18 16.3406H105.048V30.1832H103.18V16.3406Z" fill="white"/>
<path d="M121.496 16.3406V28.4987C121.496 30.8497 120.922 32.5902 119.772 33.7218C118.622 34.8534 116.891 35.4185 114.575 35.4185C113.293 35.4185 112.078 35.2291 110.93 34.8534C109.78 34.4762 108.847 33.9536 108.128 33.2871L109.074 31.8662C109.741 32.463 110.553 32.9281 111.509 33.2613C112.465 33.5946 113.469 33.7612 114.522 33.7612C116.276 33.7612 117.565 33.3537 118.391 32.5372C119.215 31.7207 119.627 30.4543 119.627 28.735V26.9717C119.048 27.8488 118.289 28.5153 117.35 28.9713C116.411 29.4273 115.372 29.656 114.231 29.656C112.933 29.656 111.753 29.3712 110.691 28.8001C109.629 28.2305 108.796 27.4322 108.191 26.4052C107.585 25.3796 107.284 24.2162 107.284 22.918C107.284 21.6198 107.587 20.4624 108.191 19.4445C108.797 18.428 109.626 17.6373 110.679 17.0768C111.731 16.5148 112.916 16.2345 114.231 16.2345C115.407 16.2345 116.468 16.4708 117.415 16.945C118.362 17.4191 119.125 18.1023 119.704 18.9976V16.3406H121.496ZM117.127 27.3535C117.935 26.9232 118.562 26.3234 119.009 25.5508C119.456 24.7797 119.68 23.9026 119.68 22.9195C119.68 21.9364 119.456 21.0638 119.009 20.3019C118.562 19.5384 117.938 18.9431 117.141 18.5128C116.343 18.0826 115.435 17.8675 114.417 17.8675C113.399 17.8675 112.518 18.0781 111.719 18.4992C110.921 18.9203 110.298 19.5172 109.852 20.2882C109.405 21.0608 109.181 21.9379 109.181 22.9195C109.181 23.9011 109.405 24.7797 109.852 25.5508C110.298 26.3234 110.921 26.9232 111.719 27.3535C112.518 27.7837 113.418 27.9988 114.417 27.9988C115.417 27.9988 116.32 27.7837 117.127 27.3535Z" fill="white"/>
<path d="M125.127 12.9201C124.864 12.6565 124.732 12.3414 124.732 11.9733C124.732 11.6052 124.864 11.3159 125.127 11.0523C125.391 10.7887 125.715 10.6569 126.101 10.6569C126.488 10.6569 126.812 10.7841 127.075 11.0386C127.339 11.2931 127.471 11.5961 127.471 11.946C127.471 12.3323 127.339 12.6565 127.075 12.9201C126.812 13.1836 126.488 13.3154 126.101 13.3154C125.715 13.3154 125.391 13.1836 125.127 12.9201ZM125.153 16.3406H127.021V30.1832H125.153V16.3406Z" fill="white"/>
<path d="M132.706 29.4061C131.635 28.8001 130.794 27.9639 130.179 26.8929C129.566 25.8235 129.258 24.6131 129.258 23.2619C129.258 21.9106 129.566 20.7003 130.179 19.6308C130.793 18.5613 131.635 17.7266 132.706 17.1313C133.775 16.5345 134.978 16.236 136.311 16.236C137.644 16.236 138.846 16.5345 139.917 17.1313C140.986 17.7282 141.824 18.5613 142.43 19.6308C143.036 20.7018 143.337 21.9122 143.337 23.2619C143.337 24.6116 143.034 25.8235 142.43 26.8929C141.824 27.9639 140.986 28.8001 139.917 29.4061C138.846 30.012 137.644 30.3134 136.311 30.3134C134.978 30.3134 133.775 30.0105 132.706 29.4061ZM138.955 27.9851C139.735 27.5383 140.345 26.902 140.783 26.078C141.221 25.2539 141.441 24.3147 141.441 23.2619C141.441 22.2091 141.221 21.2714 140.783 20.4458C140.344 19.6217 139.735 18.9855 138.955 18.5386C138.173 18.0917 137.293 17.8675 136.31 17.8675C135.327 17.8675 134.445 18.0917 133.665 18.5386C132.885 18.9855 132.27 19.6217 131.823 20.4458C131.376 21.2714 131.152 22.2091 131.152 23.2619C131.152 24.3147 131.376 25.2539 131.823 26.078C132.27 26.902 132.885 27.5383 133.665 27.9851C134.445 28.432 135.327 28.6562 136.31 28.6562C137.293 28.6562 138.173 28.432 138.955 27.9851Z" fill="white"/>
<path d="M170.415 11.7612V30.1817H168.547V15.4453L161.311 27.8397H160.39L153.153 15.5241V30.1817H151.285V11.7612H152.891L160.891 25.419L168.812 11.7612H170.418H170.415Z" fill="white"/>
<path d="M186.493 23.8405H174.914C175.018 25.2796 175.571 26.4415 176.571 27.3277C177.571 28.2139 178.834 28.6562 180.361 28.6562C181.22 28.6562 182.009 28.5032 182.729 28.1957C183.449 27.8882 184.071 27.4368 184.597 26.8399L185.65 28.0503C185.035 28.7865 184.268 29.3485 183.347 29.7348C182.426 30.1211 181.413 30.3134 180.308 30.3134C178.887 30.3134 177.629 30.0105 176.532 29.4061C175.435 28.8001 174.581 27.9639 173.966 26.8929C173.351 25.8235 173.045 24.6131 173.045 23.2619C173.045 21.9106 173.339 20.7003 173.926 19.6308C174.514 18.5613 175.321 17.7266 176.347 17.1313C177.374 16.5345 178.527 16.236 179.807 16.236C181.087 16.236 182.237 16.5345 183.255 17.1313C184.273 17.7282 185.071 18.5568 185.65 19.6187C186.228 20.6806 186.518 21.8955 186.518 23.2634L186.492 23.8421L186.493 23.8405ZM176.455 19.1173C175.55 19.9686 175.038 21.0775 174.915 22.4454H184.732C184.609 21.0775 184.095 19.9671 183.193 19.1173C182.288 18.2659 181.161 17.8403 179.811 17.8403C178.462 17.8403 177.359 18.2659 176.456 19.1173H176.455Z" fill="white"/>
<path d="M201.387 30.1832H199.598V27.4459C199.036 28.376 198.295 29.0864 197.374 29.5772C196.453 30.068 195.414 30.3134 194.257 30.3134C192.959 30.3134 191.783 30.015 190.73 29.4182C189.678 28.8213 188.853 27.9882 188.257 26.9187C187.66 25.8492 187.361 24.6298 187.361 23.2604C187.361 21.8909 187.66 20.673 188.257 19.602C188.853 18.5325 189.678 17.7024 190.73 17.1147C191.783 16.5269 192.959 16.233 194.257 16.233C195.379 16.233 196.393 16.4663 197.296 16.9298C198.199 17.3949 198.941 18.0751 199.519 18.9688V10.6539H201.387V30.1832ZM197.032 27.9851C197.812 27.5383 198.427 26.902 198.874 26.078C199.321 25.2539 199.545 24.3147 199.545 23.2619C199.545 22.2091 199.321 21.2714 198.874 20.4458C198.427 19.6217 197.812 18.9855 197.032 18.5386C196.252 18.0917 195.378 17.8675 194.414 17.8675C193.451 17.8675 192.55 18.0917 191.77 18.5386C190.989 18.9855 190.374 19.6217 189.927 20.4458C189.481 21.2714 189.256 22.2091 189.256 23.2619C189.256 24.3147 189.481 25.2539 189.927 26.078C190.374 26.902 190.989 27.5383 191.77 27.9851C192.55 28.432 193.431 28.6562 194.414 28.6562C195.398 28.6562 196.252 28.432 197.032 27.9851Z" fill="white"/>
<path d="M204.993 12.9201C204.729 12.6565 204.597 12.3414 204.597 11.9733C204.597 11.6052 204.729 11.3159 204.993 11.0523C205.256 10.7887 205.58 10.6569 205.967 10.6569C206.353 10.6569 206.677 10.7841 206.941 11.0386C207.204 11.2931 207.336 11.5961 207.336 11.946C207.336 12.3323 207.204 12.6565 206.941 12.9201C206.677 13.1836 206.353 13.3154 205.967 13.3154C205.58 13.3154 205.256 13.1836 204.993 12.9201ZM205.018 16.3406H206.886V30.1832H205.018V16.3406Z" fill="white"/>
<path d="M219.518 17.5903C220.483 18.4947 220.965 19.8323 220.965 21.6031V30.1817H219.176V28.023C218.755 28.7426 218.137 29.3046 217.32 29.7075C216.504 30.112 215.534 30.3134 214.412 30.3134C212.868 30.3134 211.64 29.9453 210.728 29.2076C209.816 28.4714 209.36 27.4974 209.36 26.287C209.36 25.0766 209.785 24.1647 210.637 23.4452C211.488 22.7256 212.842 22.3666 214.703 22.3666H219.097V21.5243C219.097 20.3322 218.764 19.4233 218.097 18.8007C217.431 18.1781 216.457 17.866 215.177 17.866C214.3 17.866 213.457 18.0114 212.65 18.3008C211.843 18.5901 211.15 18.99 210.572 19.4975L209.729 18.1023C210.431 17.5055 211.273 17.045 212.256 16.7208C213.238 16.3966 214.274 16.2345 215.362 16.2345C217.169 16.2345 218.555 16.686 219.52 17.5903H219.518ZM217.413 28.1169C218.167 27.6352 218.729 26.9369 219.097 26.0249V23.7618H214.756C212.388 23.7618 211.203 24.5858 211.203 26.2355C211.203 27.0429 211.509 27.6791 212.124 28.1427C212.738 28.6077 213.598 28.8395 214.703 28.8395C215.807 28.8395 216.658 28.5986 217.413 28.1154V28.1169Z" fill="white"/>
</svg>
