<svg width="221" height="44" viewBox="0 0 221 44" fill="none" xmlns="http://www.w3.org/2000/svg"><path d="M21.94 17.459a1.032 1.032 0 1 0 .001-2.064 1.032 1.032 0 0 0 0 2.064m4.828 8.36a1.032 1.032 0 1 0 0-2.063 1.032 1.032 0 0 0 0 2.063m-9.654 0a1.032 1.032 0 1 0 0-2.063 1.032 1.032 0 0 0 0 2.063m12.159 7.305a1.032 1.032 0 1 0 0-2.064 1.032 1.032 0 0 0 0 2.064m-7.334 2.382a1.032 1.032 0 1 0 0-2.063 1.032 1.032 0 0 0 0 2.063m-7.33-2.382a1.032 1.032 0 1 0-.001-2.064 1.032 1.032 0 0 0 0 2.064m-4.532-6.237a1.032 1.032 0 1 0 0-2.063 1.032 1.032 0 0 0 0 2.063m0-7.68a1.032 1.032 0 1 0 0-2.064 1.032 1.032 0 0 0 0 2.064m-3.584-2.544a1.032 1.032 0 1 0 0-2.063 1.032 1.032 0 0 0 0 2.063m3.625-5.455a1.032 1.032 0 1 0 0-2.063 1.032 1.032 0 0 0 0 2.063m5.424-3.625a1.032 1.032 0 1 0 0-2.063 1.032 1.032 0 0 0 0 2.063M21.94 6.31a1.032 1.032 0 1 0 .001-2.064 1.032 1.032 0 0 0 0 2.063m6.4 1.274a1.032 1.032 0 1 0 0-2.063 1.032 1.032 0 0 0 0 2.063m5.425 3.625a1.032 1.032 0 1 0 0-2.063 1.032 1.032 0 0 0 0 2.063m3.624 5.425a1.032 1.032 0 1 0 0-2.063 1.032 1.032 0 0 0 0 2.063m1.273 6.399a1.032 1.032 0 1 0 0-2.064 1.032 1.032 0 0 0 0 2.064M37.39 29.43a1.032 1.032 0 1 0 0-2.063 1.032 1.032 0 0 0 0 2.063m-3.624 5.426a1.032 1.032 0 1 0 0-2.063 1.032 1.032 0 0 0 0 2.063m-5.425 3.624a1.032 1.032 0 1 0 0-2.063 1.032 1.032 0 0 0 0 2.063m-6.401 1.274a1.032 1.032 0 1 0 .001-2.063 1.032 1.032 0 0 0 0 2.063m-5.367-2.306a1.032 1.032 0 1 1-2.064 0 1.032 1.032 0 0 1 2.064 0m-6.456-2.592a1.032 1.032 0 1 0 0-2.063 1.032 1.032 0 0 0 0 2.063M6.493 29.43a1.032 1.032 0 1 0 0-2.063 1.032 1.032 0 0 0 0 2.063M5.22 23.032a1.032 1.032 0 1 0 0-2.064 1.032 1.032 0 0 0 0 2.064M21.94 44a1.032 1.032 0 1 0 0-2.063 1.032 1.032 0 0 0 0 2.063m3.126-.235a1.032 1.032 0 1 0 0-2.063 1.032 1.032 0 0 0 0 2.063m3.056-.697a1.032 1.032 0 1 0 0-2.063 1.032 1.032 0 0 0 0 2.063m2.918-1.145a1.032 1.032 0 1 0-.001-2.063 1.032 1.032 0 0 0 0 2.063m2.715-1.566a1.032 1.032 0 1 0 0-2.063 1.032 1.032 0 0 0 0 2.063m2.449-1.954a1.032 1.032 0 1 0 0-2.063 1.032 1.032 0 0 0 0 2.063m2.132-2.298a1.032 1.032 0 1 0 0-2.063 1.032 1.032 0 0 0 0 2.063m1.765-2.589a1.032 1.032 0 1 0 0-2.063 1.032 1.032 0 0 0 0 2.063m1.36-2.824a1.032 1.032 0 1 0 0-2.063 1.032 1.032 0 0 0 0 2.063m.924-2.995a1.032 1.032 0 1 0 0-2.063 1.032 1.032 0 0 0 0 2.063m.468-3.099a1.032 1.032 0 1 0 0-2.063 1.032 1.032 0 0 0 0 2.063m0-3.133a1.032 1.032 0 1 0 0-2.063 1.032 1.032 0 0 0 0 2.063m-.468-3.099a1.032 1.032 0 1 0 0-2.063 1.032 1.032 0 0 0 0 2.063m-.924-2.995a1.032 1.032 0 1 0 0-2.063 1.032 1.032 0 0 0 0 2.063m-1.36-2.824a1.032 1.032 0 1 0 0-2.063 1.032 1.032 0 0 0 0 2.063m-1.765-2.588a1.032 1.032 0 1 0 0-2.064 1.032 1.032 0 0 0 0 2.064M36.203 7.66a1.032 1.032 0 1 0 0-2.063 1.032 1.032 0 0 0 0 2.064m-2.449-1.955a1.032 1.032 0 1 0 0-2.063 1.032 1.032 0 0 0 0 2.063M31.04 4.14a1.032 1.032 0 1 0-.001-2.063 1.032 1.032 0 0 0 0 2.063m-2.917-1.145a1.032 1.032 0 1 0 0-2.063 1.032 1.032 0 0 0 0 2.063m-3.056-.697a1.032 1.032 0 1 0 0-2.063 1.032 1.032 0 0 0 0 2.063m-3.126-.235A1.032 1.032 0 1 0 21.942 0a1.032 1.032 0 0 0 0 2.063m-3.126.235a1.032 1.032 0 1 0 0-2.063 1.032 1.032 0 0 0 0 2.063m-3.056.697a1.032 1.032 0 1 0 0-2.063 1.032 1.032 0 0 0 0 2.063M12.844 4.14a1.032 1.032 0 1 0 0-2.063 1.032 1.032 0 0 0 0 2.063M10.13 5.706a1.032 1.032 0 1 0 0-2.063 1.032 1.032 0 0 0 0 2.063M7.679 7.66a1.032 1.032 0 1 0 0-2.063 1.032 1.032 0 0 0 0 2.064M5.547 9.959a1.032 1.032 0 1 0 0-2.064 1.032 1.032 0 0 0 0 2.064m-1.764 2.588a1.032 1.032 0 1 0 0-2.063 1.032 1.032 0 0 0 0 2.063m-1.361 2.824a1.032 1.032 0 1 0 0-2.063 1.032 1.032 0 0 0 0 2.063M1.5 18.366a1.032 1.032 0 1 0 0-2.063 1.032 1.032 0 0 0 0 2.063m-.468 3.099a1.032 1.032 0 1 0 0-2.063 1.032 1.032 0 0 0 0 2.063m0 3.133a1.032 1.032 0 1 0 0-2.063 1.032 1.032 0 0 0 0 2.063m.468 3.099a1.032 1.032 0 1 0 0-2.063 1.032 1.032 0 0 0 0 2.063m1.954 1.963a1.032 1.032 0 1 1-2.064 0 1.032 1.032 0 0 1 2.064 0m.329 3.856a1.032 1.032 0 1 0 0-2.063 1.032 1.032 0 0 0 0 2.063m1.764 2.589a1.032 1.032 0 1 0 0-2.064 1.032 1.032 0 0 0 0 2.064m2.132 2.298a1.032 1.032 0 1 0 0-2.064 1.032 1.032 0 0 0 0 2.064m2.451 1.954a1.032 1.032 0 1 0 0-2.063 1.032 1.032 0 0 0 0 2.063m2.714 1.566a1.032 1.032 0 1 0 0-2.063 1.032 1.032 0 0 0 0 2.063m2.916 1.145a1.032 1.032 0 1 0 0-2.063 1.032 1.032 0 0 0 0 2.063m3.056.697a1.032 1.032 0 1 0 0-2.063 1.032 1.032 0 0 0 0 2.063" fill="#fff"/><path d="M3.739 19.664a1.032 1.032 0 1 1-2.064 0 1.032 1.032 0 0 1 2.064 0m.086-3.504a1.032 1.032 0 1 0 0-2.063 1.032 1.032 0 0 0 0 2.063m3.202-5.167a1.032 1.032 0 1 1-2.063 0 1.032 1.032 0 0 1 2.063 0m2.067-2.464a1.032 1.032 0 1 0 0-2.064 1.032 1.032 0 0 0 0 2.064m3.843-2.654a1.032 1.032 0 1 0 0-2.064 1.032 1.032 0 0 0 0 2.064m5.4-2.688a1.032 1.032 0 1 1-2.063 0 1.032 1.032 0 0 1 2.063 0m3.603.468a1.032 1.032 0 1 0 .001-2.063 1.032 1.032 0 0 0 0 2.063m4.637.564a1.032 1.032 0 1 0 0-2.063 1.032 1.032 0 0 0 0 2.063m4.369 1.656a1.032 1.032 0 1 0 0-2.064 1.032 1.032 0 0 0 0 2.064m3.843 2.654a1.032 1.032 0 1 0 0-2.064 1.032 1.032 0 0 0 0 2.064m3.098 3.496a1.032 1.032 0 1 0 0-2.063 1.032 1.032 0 0 0 0 2.063m2.17 4.135a1.032 1.032 0 1 0 0-2.063 1.032 1.032 0 0 0 0 2.063m1.118 4.536a1.032 1.032 0 1 0 0-2.063 1.032 1.032 0 0 0 0 2.063m0 4.672a1.032 1.032 0 1 0 0-2.064 1.032 1.032 0 0 0 0 2.064m-1.118 4.535a1.032 1.032 0 1 0 0-2.063 1.032 1.032 0 0 0 0 2.063m-2.17 4.135a1.032 1.032 0 1 0 0-2.063 1.032 1.032 0 0 0 0 2.063m-3.098 3.497a1.032 1.032 0 1 0 0-2.064 1.032 1.032 0 0 0 0 2.064m-3.843 2.654a1.032 1.032 0 1 0 0-2.063 1.032 1.032 0 0 0 0 2.063m-4.369 1.655a1.032 1.032 0 1 0 0-2.063 1.032 1.032 0 0 0 0 2.063m-4.638.564a1.032 1.032 0 1 0 .001-2.063 1.032 1.032 0 0 0 0 2.063m-3.604-1.595a1.032 1.032 0 1 1-2.063 0 1.032 1.032 0 0 1 2.063 0m-4.369-1.656a1.032 1.032 0 1 1-2.063 0 1.032 1.032 0 0 1 2.063 0m-4.874-1.622a1.032 1.032 0 1 0 0-2.064 1.032 1.032 0 0 0 0 2.064m-3.098-3.497a1.032 1.032 0 1 0 0-2.063 1.032 1.032 0 0 0 0 2.063m-2.171-4.135a1.032 1.032 0 1 0 0-2.063 1.032 1.032 0 0 0 0 2.063m-.086-5.567a1.032 1.032 0 1 1-2.064 0 1.032 1.032 0 0 1 2.064 0M14.61 12.94a1.032 1.032 0 1 0-.001-2.064 1.032 1.032 0 0 0 0 2.064m7.331-2.383a1.032 1.032 0 1 0 0-2.063 1.032 1.032 0 0 0 0 2.063m7.334 2.383a1.032 1.032 0 1 0 0-2.064 1.032 1.032 0 0 0 0 2.064m4.531 6.236a1.032 1.032 0 1 0 0-2.063 1.032 1.032 0 0 0 0 2.063m0 7.711a1.032 1.032 0 1 0 0-2.063 1.032 1.032 0 0 0 0 2.063m35.034-15.126-8.158 18.42h-1.92l-8.158-18.42h2.106l7.053 16 7.105-16zM80.523 23.84h-11.58q.158 2.16 1.658 3.488t3.79 1.328q1.288 0 2.367-.46a5.2 5.2 0 0 0 1.868-1.356l1.053 1.21a5.95 5.95 0 0 1-2.303 1.685q-1.381.578-3.038.578-2.132 0-3.777-.907a6.55 6.55 0 0 1-2.566-2.513q-.92-1.605-.921-3.631 0-2.027.882-3.631a6.4 6.4 0 0 1 2.42-2.5q1.54-.895 3.46-.895t3.448.895a6.35 6.35 0 0 1 2.395 2.488q.868 1.592.868 3.644l-.026.58zm-10.04-4.723q-1.354 1.277-1.538 3.328h9.816q-.184-2.052-1.539-3.328-1.356-1.277-3.381-1.277c-1.35 0-2.453.426-3.355 1.277zm12.789 10.71q-1.538-.486-2.408-1.224l.842-1.474q.868.684 2.184 1.118a8.7 8.7 0 0 0 2.738.435q1.894 0 2.802-.592.908-.593.907-1.671 0-.764-.5-1.197-.5-.435-1.263-.657-.763-.224-2.027-.435-1.683-.316-2.71-.645a4 4 0 0 1-1.75-1.118q-.724-.79-.724-2.185 0-1.736 1.447-2.842 1.447-1.105 4.027-1.105 1.342 0 2.684.355 1.342.356 2.21.935l-.816 1.5q-1.71-1.185-4.08-1.185-1.79 0-2.696.632-.909.632-.908 1.657 0 .789.514 1.264.514.474 1.275.696.763.225 2.106.46 1.656.317 2.657.633.999.316 1.71 1.078.71.764.71 2.106 0 1.815-1.513 2.881t-4.197 1.066q-1.685 0-3.224-.486zm18.092-.487a3.6 3.6 0 0 1-1.303.725 5.3 5.3 0 0 1-1.618.25q-1.947 0-3-1.053-1.051-1.051-1.052-2.974v-8.367h-2.474v-1.579h2.474v-3.027h1.868v3.027h4.21v1.579h-4.21v8.263q0 1.238.618 1.881.618.646 1.777.646.579.001 1.118-.185.539-.185.934-.526l.658 1.342zm1.79-16.42a1.3 1.3 0 0 1-.395-.947c0-.368.132-.657.395-.92q.395-.396.975-.396.578 0 .974.382.395.381.395.907 0 .578-.395.974a1.32 1.32 0 0 1-.974.395q-.58 0-.975-.395m.026 3.42h1.868v13.843h-1.868zm18.316 0V28.5q0 3.525-1.724 5.223t-5.197 1.697q-1.923-.001-3.645-.566-1.724-.566-2.802-1.566l.946-1.42q1 .894 2.435 1.394 1.434.5 3.013.5 2.63 0 3.869-1.224 1.236-1.224 1.236-3.802v-1.763a5.63 5.63 0 0 1-2.277 2q-1.408.683-3.119.684-1.947 0-3.54-.856a6.3 6.3 0 0 1-2.5-2.395q-.908-1.539-.907-3.487 0-1.947.907-3.473a6.3 6.3 0 0 1 2.488-2.368q1.579-.843 3.552-.843 1.764 0 3.184.711a5.74 5.74 0 0 1 2.289 2.053V16.34zm-4.369 11.014a4.65 4.65 0 0 0 1.882-1.803q.67-1.156.671-2.631 0-1.476-.671-2.618a4.7 4.7 0 0 0-1.868-1.79q-1.197-.645-2.724-.645c-1.018 0-1.899.211-2.698.632a4.6 4.6 0 0 0-1.867 1.79q-.67 1.158-.671 2.63 0 1.473.671 2.632a4.67 4.67 0 0 0 1.867 1.803q1.199.645 2.698.645 1.5 0 2.71-.645m8-14.434a1.3 1.3 0 0 1-.395-.947c0-.368.132-.657.395-.92q.395-.396.974-.396.58 0 .974.382.396.381.396.907 0 .578-.396.974a1.32 1.32 0 0 1-.974.395q-.579 0-.974-.395m.026 3.42h1.868v13.843h-1.868zm7.553 13.066a6.6 6.6 0 0 1-2.527-2.513q-.92-1.605-.921-3.631 0-2.027.921-3.631a6.5 6.5 0 0 1 2.527-2.5q1.605-.895 3.605-.895t3.606.895a6.45 6.45 0 0 1 2.513 2.5q.908 1.606.907 3.63 0 2.027-.907 3.632a6.54 6.54 0 0 1-2.513 2.513q-1.607.908-3.606.907-2 0-3.605-.907m6.249-1.42a4.7 4.7 0 0 0 1.828-1.908q.657-1.236.658-2.816 0-1.578-.658-2.816a4.7 4.7 0 0 0-1.828-1.907q-1.172-.671-2.645-.672-1.475 0-2.645.672a4.77 4.77 0 0 0-1.842 1.907q-.67 1.237-.671 2.816 0 1.58.671 2.816a4.76 4.76 0 0 0 1.842 1.907q1.17.67 2.645.671 1.473 0 2.645-.67m31.46-16.225v18.42h-1.868V15.446l-7.236 12.395h-.921l-7.237-12.316v14.658h-1.868v-18.42h1.606l8 13.657 7.921-13.658h1.606zm16.078 12.079h-11.579q.156 2.16 1.657 3.488 1.5 1.328 3.79 1.328 1.288 0 2.368-.46a5.2 5.2 0 0 0 1.868-1.356l1.053 1.21a5.95 5.95 0 0 1-2.303 1.685q-1.381.578-3.039.578-2.131 0-3.776-.907a6.55 6.55 0 0 1-2.566-2.513q-.922-1.605-.921-3.631 0-2.027.881-3.631a6.4 6.4 0 0 1 2.421-2.5q1.54-.895 3.46-.895t3.448.895a6.34 6.34 0 0 1 2.395 2.488q.867 1.592.868 3.644l-.026.58zm-10.038-4.723q-1.357 1.277-1.54 3.328h9.817q-.185-2.052-1.539-3.328-1.357-1.277-3.382-1.277c-1.349 0-2.452.426-3.355 1.277zm24.932 11.066h-1.789v-2.737a5.7 5.7 0 0 1-2.224 2.131q-1.381.736-3.117.736-1.947 0-3.527-.895a6.4 6.4 0 0 1-2.473-2.5q-.896-1.603-.896-3.658 0-2.053.896-3.658a6.3 6.3 0 0 1 2.473-2.487q1.58-.882 3.527-.882 1.684 0 3.039.697a5.76 5.76 0 0 1 2.223 2.039v-8.315h1.868zm-4.355-2.198a4.76 4.76 0 0 0 1.842-1.907q.67-1.236.671-2.816 0-1.578-.671-2.816a4.77 4.77 0 0 0-1.842-1.907q-1.171-.671-2.618-.672c-.963 0-1.864.225-2.644.672a4.76 4.76 0 0 0-1.843 1.907q-.67 1.237-.671 2.816.001 1.58.671 2.816a4.76 4.76 0 0 0 1.843 1.907q1.17.67 2.644.671c.984 0 1.838-.224 2.618-.67m7.961-15.066a1.3 1.3 0 0 1-.396-.947c0-.368.132-.657.396-.92a1.32 1.32 0 0 1 .974-.396q.578 0 .974.382.395.381.395.907 0 .578-.395.974a1.32 1.32 0 0 1-.974.395q-.58 0-.974-.395m.025 3.42h1.868v13.843h-1.868zm14.5 1.25q1.447 1.357 1.447 4.013v8.579h-1.789v-2.159q-.631 1.08-1.856 1.685t-2.908.605q-2.316 0-3.684-1.105t-1.368-2.921c0-1.21.425-2.122 1.277-2.842q1.276-1.079 4.066-1.078h4.394v-.843q0-1.788-1-2.723t-2.92-.935q-1.316 0-2.527.435-1.21.435-2.078 1.197l-.843-1.396q1.053-.894 2.527-1.381a9.9 9.9 0 0 1 3.106-.486q2.71 0 4.158 1.355zm-2.105 10.527q1.131-.724 1.684-2.092v-2.263h-4.341q-3.552 0-3.553 2.473 0 1.212.921 1.908.921.697 2.579.697c1.104 0 1.955-.241 2.71-.725z" fill="#fff"/></svg>