<svg width="41" height="40" viewBox="0 0 41 40" fill="none" xmlns="http://www.w3.org/2000/svg"><mask id="mask0_1744_244" style="mask-type:alpha" maskUnits="userSpaceOnUse" x="0" y="0" width="41" height="40"><path fill="#d9d9d9" d="M.2 0h40v40H.2z"/></mask><g mask="url(#mask0_1744_244)"><path d="M6.852 34.84 5.36 33.348l6.052-6.05H6.033v-2.095h8.964v8.964h-2.094v-5.379zm26.696 0-6.051-6.052v5.379h-2.094v-8.964h8.964v2.094h-5.379l6.051 6.051zM6.033 14.797v-2.094h5.379L5.36 6.652 6.852 5.16l6.05 6.052V5.833h2.095v8.964zm19.37 0V5.833h2.094v5.379l6.068-6.069 1.492 1.492-6.069 6.068h5.379v2.094zm-5.186 7.71a2.43 2.43 0 0 1-1.783-.74A2.4 2.4 0 0 1 17.692 20q0-1.026.744-1.767a2.44 2.44 0 0 1 1.786-.74q1.02 0 1.753.74T22.707 20q0 1.026-.731 1.767a2.38 2.38 0 0 1-1.759.74" fill="#fff"/></g></svg>