<svg width="41" height="40" viewBox="0 0 41 40" fill="none" xmlns="http://www.w3.org/2000/svg"><mask id="mask0_1744_238" style="mask-type:alpha" maskUnits="userSpaceOnUse" x="0" y="0" width="41" height="40"><path fill="#d9d9d9" d="M.6 0h40v40H.6z"/></mask><g mask="url(#mask0_1744_238)"><path d="M7.267 31.047q-.445 0-.746-.303a1.02 1.02 0 0 1-.301-.75q0-.447.301-.744t.746-.297h16.667q.445 0 .745.303.302.302.302.75 0 .447-.302.744-.3.297-.745.297zm23.333 0q-.445 0-.746-.303a1.02 1.02 0 0 1-.3-.75q0-.447.3-.744.301-.297.746-.297h3.334q.444 0 .745.303.302.302.302.75 0 .447-.302.744-.3.297-.745.297zM7.267 24.38a1 1 0 0 1-.746-.302 1.02 1.02 0 0 1-.301-.75q0-.448.301-.745t.746-.297H10.6q.445 0 .746.303.3.303.301.75 0 .447-.301.744t-.746.297zm10 0a1 1 0 0 1-.746-.302 1.02 1.02 0 0 1-.301-.75q0-.448.301-.745t.746-.297h16.667q.444 0 .745.303.302.303.302.75t-.302.744q-.3.297-.745.297zm-10-6.666a1 1 0 0 1-.746-.303 1.02 1.02 0 0 1-.301-.75q0-.447.301-.744t.746-.297H25.6q.445 0 .746.303.3.302.301.749 0 .448-.301.745t-.746.297zm25 0a1 1 0 0 1-.746-.303 1.02 1.02 0 0 1-.301-.75q0-.447.301-.744t.746-.297h1.666q.446 0 .746.303.302.302.302.749 0 .448-.302.745-.3.297-.745.297zm-25-6.667q-.445 0-.746-.303a1.02 1.02 0 0 1-.301-.75q0-.447.301-.744t.746-.297H15.6q.445 0 .746.303.3.302.301.75 0 .447-.301.744t-.746.297zm15 0q-.446 0-.746-.303a1.02 1.02 0 0 1-.301-.75q0-.447.301-.744t.746-.297h11.667q.444 0 .745.303.302.302.302.75 0 .447-.302.744-.3.297-.745.297z" fill="#fff"/></g></svg>