<svg width="41" height="40" viewBox="0 0 41 40" fill="none" xmlns="http://www.w3.org/2000/svg"><mask id="mask0_1744_256" style="mask-type:alpha" maskUnits="userSpaceOnUse" x="0" y="0" width="41" height="40"><path fill="#d9d9d9" d="M.4 0h40v40H.4z"/></mask><g mask="url(#mask0_1744_256)"><path d="M18.883 35.833a2.5 2.5 0 0 1-1.84-.766 2.5 2.5 0 0 1-.767-1.84V18.482q0-1.075.766-1.84a2.5 2.5 0 0 1 1.84-.767h14.744q1.075 0 1.841.766.765.767.766 1.841v14.743a2.5 2.5 0 0 1-.766 1.841 2.5 2.5 0 0 1-1.84.766zm0-2.094h14.743a.5.5 0 0 0 .353-.16.5.5 0 0 0 .16-.353V18.483a.5.5 0 0 0-.16-.352.5.5 0 0 0-.353-.16H18.883a.5.5 0 0 0-.353.16.5.5 0 0 0-.16.352v14.743a.5.5 0 0 0 .16.353.5.5 0 0 0 .353.16m-8.462-3.286V12.628q0-1.075.767-1.84a2.5 2.5 0 0 1 1.84-.767h17.825v2.095H13.028a.5.5 0 0 0-.352.16.5.5 0 0 0-.16.352v17.825zm-5.854-5.855V6.774q0-1.075.766-1.841a2.5 2.5 0 0 1 1.84-.766h17.825V6.26H7.174a.5.5 0 0 0-.353.16.5.5 0 0 0-.16.353v17.824z" fill="#fff"/></g></svg>