<svg width="41" height="40" viewBox="0 0 41 40" fill="none" xmlns="http://www.w3.org/2000/svg">
<mask id="mask0_1744_250" style="mask-type:alpha" maskUnits="userSpaceOnUse" x="0" y="0" width="41" height="40">
<rect x="0.800049" width="40" height="40" fill="#D9D9D9"/>
</mask>
<g mask="url(#mask0_1744_250)">
<path d="M32.8725 14.6262V7.92742H26.1737V5.83325H34.9666V14.6262H32.8725ZM6.6333 34.1666V25.3633H8.72747V32.0724H15.4366V34.1666H6.6333ZM6.6333 21.1433V18.8566H8.91955V21.1433H6.6333ZM6.6333 14.6262V12.3395H8.91955V14.6262H6.6333ZM6.6333 8.1195V5.83325H8.91955V8.1195H6.6333ZM13.1504 8.1195V5.83325H15.4366V8.1195H13.1504ZM19.6566 34.1666V31.8803H21.9433V34.1666H19.6566ZM19.6566 8.1195V5.83325H21.9433V8.1195H19.6566ZM26.1737 34.1666V31.8803H28.4604V34.1666H26.1737ZM32.6804 34.1666V31.8803H34.9666V34.1666H32.6804ZM32.6804 27.6495V25.3633H34.9666V27.6495H32.6804ZM32.6804 21.1433V18.8566H34.9666V21.1433H32.6804Z" fill="white"/>
</g>
</svg>
