<svg xmlns="http://www.w3.org/2000/svg" width="41" height="40" fill="none"><mask id="a" width="41" height="40" x="0" y="0" maskUnits="userSpaceOnUse" style="mask-type:alpha"><path fill="#d9d9d9" d="M.8 0h40v40H.8z"/></mask><g mask="url(#a)"><path fill="#fff" d="M32.873 14.626V7.927h-6.7V5.833h8.794v8.793zm-26.24 19.54v-8.803h2.094v6.71h6.71v2.094zm0-13.023v-2.286H8.92v2.286zm0-6.517V12.34H8.92v2.286zm0-6.506V5.833H8.92V8.12zm6.517 0V5.833h2.287V8.12zm6.507 26.047V31.88h2.286v2.287zm0-26.047V5.833h2.286V8.12zm6.517 26.047V31.88h2.286v2.287zm6.506 0V31.88h2.287v2.287zm0-6.518v-2.286h2.287v2.287zm0-6.506v-2.286h2.287v2.286z"/></g></svg>