<svg width="73" height="14" viewBox="0 0 73 14" fill="none" xmlns="http://www.w3.org/2000/svg"><path d="M2.441 12.586A3.44 3.44 0 0 1 .966 11.44 3.02 3.02 0 0 1 .41 9.67H2.8c.01.411.185.803.485 1.083.336.281.766.426 1.202.4.44.024.874-.11 1.223-.378.292-.24.456-.602.445-.981a1.13 1.13 0 0 0-.302-.81 2.1 2.1 0 0 0-.758-.503 13 13 0 0 0-1.249-.406c-.6-.17-1.19-.386-1.76-.639A3.06 3.06 0 0 1 .929 6.52a2.66 2.66 0 0 1-.487-1.68 3 3 0 0 1 .494-1.724c.342-.5.825-.892 1.385-1.124a5 5 0 0 1 2.038-.39q1.72 0 2.796.837a3.1 3.1 0 0 1 1.187 2.34H5.888a1.28 1.28 0 0 0-.485-.946A1.84 1.84 0 0 0 4.2 3.458a1.55 1.55 0 0 0-1.045.322c-.27.249-.413.606-.39.972-.008.277.098.545.294.74.21.207.46.369.734.477q.606.244 1.234.426.908.255 1.769.638c.463.22.866.547 1.176.955.351.483.528 1.073.502 1.668a3.1 3.1 0 0 1-.461 1.656 3.23 3.23 0 0 1-1.354 1.22 4.6 4.6 0 0 1-2.127.452 5.3 5.3 0 0 1-2.092-.398m11.687-9.045V6.33h3.742v1.768h-3.742v2.945h4.221v1.815H11.9V1.727h6.45V3.54zm27.484-1.864V8.56q0 1.13.587 1.727.588.598 1.658.596 1.082 0 1.672-.596.589-.597.59-1.727V1.677h2.245v6.865a4.4 4.4 0 0 1-.613 2.395 3.9 3.9 0 0 1-1.64 1.475 5.2 5.2 0 0 1-2.286.491 5.06 5.06 0 0 1-2.253-.493 3.75 3.75 0 0 1-1.605-1.473 4.56 4.56 0 0 1-.589-2.395V1.677zm17.629.056V3.54h-2.962v9.318h-2.23V3.54h-2.962V1.733zm7.728-.134c-3.332 0-6.035 2.553-6.035 5.694s2.703 5.691 6.035 5.691S73 10.431 73 7.293s-2.7-5.694-6.032-5.694m0 9.396a3.697 3.697 0 1 1 3.738-3.696 3.72 3.72 0 0 1-3.738 3.69zM34.273.222l-1.69 9.575a.531.531 0 0 1-.97.196l-4.256-6.577A2.665 2.665 0 0 0 22.5 4.4l-1.588 9.007 2.098.37 1.587-9.007a.537.537 0 0 1 .622-.432c.144.026.272.11.35.234l4.257 6.577a2.65 2.65 0 0 0 2.763 1.162 2.645 2.645 0 0 0 2.094-2.147L36.373.59z" fill="#fff"/></svg>