<svg width="40" height="41" viewBox="0 0 40 41" fill="none" xmlns="http://www.w3.org/2000/svg"><mask id="mask0_1744_185" style="mask-type:alpha" maskUnits="userSpaceOnUse" x="0" y="0" width="40" height="41"><path fill="#d9d9d9" d="M0 .25h40v40H0z"/></mask><g mask="url(#mask0_1744_185)"><path d="M8.44 34.417a2.5 2.5 0 0 1-1.84-.767 2.5 2.5 0 0 1-.767-1.84v-6.402h2.094v6.402a.5.5 0 0 0 .16.353q.16.16.353.16h6.402v2.094zm16.718 0v-2.095h6.401a.5.5 0 0 0 .353-.16.5.5 0 0 0 .16-.352v-6.402h2.095v6.402a2.5 2.5 0 0 1-.767 1.84 2.5 2.5 0 0 1-1.84.767zM5.833 15.092V8.69q0-1.075.766-1.84a2.5 2.5 0 0 1 1.841-.767h6.402v2.095H8.44a.5.5 0 0 0-.353.16.5.5 0 0 0-.16.352v6.402zm26.24 0V8.69a.5.5 0 0 0-.16-.352.5.5 0 0 0-.354-.16h-6.401V6.083h6.401q1.075 0 1.841.767.767.766.767 1.84v6.402zM20 27.485q-3.005 0-5.12-2.115t-2.115-5.12 2.115-5.12T20 13.015q3.003 0 5.12 2.115 2.115 2.116 2.115 5.12t-2.116 5.12-5.12 2.115m0-2.094q2.163 0 3.652-1.49 1.488-1.489 1.489-3.651 0-2.163-1.49-3.652T20 15.11t-3.652 1.49-1.489 3.651q0 2.163 1.49 3.652 1.489 1.488 3.65 1.489" fill="#fff"/></g></svg>